<svg xmlns="http://www.w3.org/2000/svg" xmlns:xlink="http://www.w3.org/1999/xlink" width="500" zoomAndPan="magnify" viewBox="0 0 375 374.999991" height="500" preserveAspectRatio="xMidYMid meet" version="1.0"><defs><g/><clipPath id="85619f8788"><path d="M 75.738281 122 L 287.988281 122 L 287.988281 181 L 75.738281 181 Z M 75.738281 122 " clip-rule="nonzero"/></clipPath><clipPath id="bca8c4db43"><path d="M 141.246094 63.09375 L 233.4375 63.09375 L 233.4375 213.085938 L 141.246094 213.085938 Z M 141.246094 63.09375 " clip-rule="nonzero"/></clipPath></defs><path fill="#ffffff" d="M 86.707031 190.078125 C 88.359375 191.730469 90.554688 192.628906 92.886719 192.628906 L 270.507812 192.628906 C 275.253906 192.628906 279.125 188.820312 279.238281 184.097656 L 84.15625 184.097656 C 84.207031 186.355469 85.109375 188.46875 86.707031 190.078125 Z M 86.707031 190.078125 " fill-opacity="1" fill-rule="nonzero"/><g clip-path="url(#85619f8788)"><path fill="#ffffff" d="M 285.757812 122.132812 L 77.632812 122.132812 C 76.585938 122.132812 75.738281 122.980469 75.738281 124.019531 L 75.738281 178.714844 C 75.738281 179.753906 76.585938 180.601562 77.632812 180.601562 L 285.757812 180.601562 C 286.800781 180.601562 287.648438 179.753906 287.648438 178.714844 L 287.648438 124.019531 C 287.648438 122.980469 286.800781 122.132812 285.757812 122.132812 Z M 278.066406 172.246094 L 85.328125 172.246094 C 84.363281 172.246094 83.578125 171.457031 83.578125 170.496094 C 83.578125 169.535156 84.363281 168.75 85.328125 168.75 L 278.066406 168.75 C 279.027344 168.75 279.816406 169.535156 279.816406 170.496094 C 279.816406 171.457031 279.027344 172.246094 278.066406 172.246094 Z M 278.066406 172.246094 " fill-opacity="1" fill-rule="nonzero"/></g><g fill="#0071bc" fill-opacity="0.4"><g transform="translate(12.048881, 264.960889)"><g><path d="M 22.90625 0.765625 C 18.894531 0.765625 15.296875 -0.078125 12.109375 -1.765625 C 8.921875 -3.460938 6.414062 -5.820312 4.59375 -8.84375 C 2.769531 -11.875 1.859375 -15.300781 1.859375 -19.125 C 1.859375 -22.957031 2.769531 -26.382812 4.59375 -29.40625 C 6.414062 -32.425781 8.921875 -34.785156 12.109375 -36.484375 C 15.296875 -38.179688 18.894531 -39.03125 22.90625 -39.03125 C 26.394531 -39.03125 29.539062 -38.410156 32.34375 -37.171875 C 35.15625 -35.929688 37.492188 -34.144531 39.359375 -31.8125 L 32.46875 -25.578125 C 29.988281 -28.566406 26.984375 -30.0625 23.453125 -30.0625 C 21.367188 -30.0625 19.515625 -29.601562 17.890625 -28.6875 C 16.273438 -27.78125 15.019531 -26.5 14.125 -24.84375 C 13.238281 -23.1875 12.796875 -21.28125 12.796875 -19.125 C 12.796875 -16.976562 13.238281 -15.078125 14.125 -13.421875 C 15.019531 -11.765625 16.273438 -10.476562 17.890625 -9.5625 C 19.515625 -8.65625 21.367188 -8.203125 23.453125 -8.203125 C 26.984375 -8.203125 29.988281 -9.695312 32.46875 -12.6875 L 39.359375 -6.453125 C 37.492188 -4.117188 35.15625 -2.332031 32.34375 -1.09375 C 29.539062 0.144531 26.394531 0.765625 22.90625 0.765625 Z M 22.90625 0.765625 "/></g></g></g><g fill="#0071bc" fill-opacity="0.4"><g transform="translate(48.230607, 264.960889)"><g><path d="M 3.828125 -38.265625 L 14.640625 -38.265625 L 14.640625 -8.578125 L 32.90625 -8.578125 L 32.90625 0 L 3.828125 0 Z M 3.828125 -38.265625 "/></g></g></g><g fill="#0071bc" fill-opacity="0.4"><g transform="translate(77.416345, 264.960889)"><g><path d="M 34.546875 -8.359375 L 34.546875 0 L 3.828125 0 L 3.828125 -38.265625 L 33.828125 -38.265625 L 33.828125 -29.890625 L 14.53125 -29.890625 L 14.53125 -23.453125 L 31.53125 -23.453125 L 31.53125 -15.359375 L 14.53125 -15.359375 L 14.53125 -8.359375 Z M 34.546875 -8.359375 "/></g></g></g><g fill="#0071bc" fill-opacity="0.4"><g transform="translate(109.990767, 264.960889)"><g><path d="M 29.453125 -7.4375 L 13.28125 -7.4375 L 10.28125 0 L -0.765625 0 L 16.125 -38.265625 L 26.78125 -38.265625 L 43.71875 0 L 32.46875 0 Z M 26.296875 -15.40625 L 21.375 -27.65625 L 16.453125 -15.40625 Z M 26.296875 -15.40625 "/></g></g></g><g fill="#0071bc" fill-opacity="0.4"><g transform="translate(148.795987, 264.960889)"><g><path d="M 40.234375 -38.265625 L 40.234375 0 L 31.3125 0 L 14.421875 -20.390625 L 14.421875 0 L 3.828125 0 L 3.828125 -38.265625 L 12.734375 -38.265625 L 29.625 -17.875 L 29.625 -38.265625 Z M 40.234375 -38.265625 "/></g></g></g><g fill="#0071bc" fill-opacity="0.4"><g transform="translate(188.694327, 264.960889)"><g><path d="M 34.546875 -8.359375 L 34.546875 0 L 3.828125 0 L 3.828125 -38.265625 L 33.828125 -38.265625 L 33.828125 -29.890625 L 14.53125 -29.890625 L 14.53125 -23.453125 L 31.53125 -23.453125 L 31.53125 -15.359375 L 14.53125 -15.359375 L 14.53125 -8.359375 Z M 34.546875 -8.359375 "/></g></g></g><g fill="#0071bc" fill-opacity="0.4"><g transform="translate(221.268757, 264.960889)"><g><path d="M 20.546875 -10.171875 L 14.640625 -10.171875 L 14.640625 0 L 3.828125 0 L 3.828125 -38.265625 L 21.3125 -38.265625 C 24.78125 -38.265625 27.785156 -37.6875 30.328125 -36.53125 C 32.878906 -35.382812 34.847656 -33.742188 36.234375 -31.609375 C 37.617188 -29.484375 38.3125 -26.984375 38.3125 -24.109375 C 38.3125 -21.335938 37.664062 -18.921875 36.375 -16.859375 C 35.082031 -14.796875 33.234375 -13.1875 30.828125 -12.03125 L 39.078125 0 L 27.484375 0 Z M 27.375 -24.109375 C 27.375 -25.890625 26.8125 -27.269531 25.6875 -28.25 C 24.5625 -29.238281 22.882812 -29.734375 20.65625 -29.734375 L 14.640625 -29.734375 L 14.640625 -18.53125 L 20.65625 -18.53125 C 22.882812 -18.53125 24.5625 -19.007812 25.6875 -19.96875 C 26.8125 -20.9375 27.375 -22.316406 27.375 -24.109375 Z M 27.375 -24.109375 "/></g></g></g><g fill="#0071bc" fill-opacity="0.4"><g transform="translate(257.559793, 264.960889)"><g/></g></g><g fill="#0071bc" fill-opacity="0.4"><g transform="translate(269.310226, 264.960889)"><g><path d="M 29.453125 -7.4375 L 13.28125 -7.4375 L 10.28125 0 L -0.765625 0 L 16.125 -38.265625 L 26.78125 -38.265625 L 43.71875 0 L 32.46875 0 Z M 26.296875 -15.40625 L 21.375 -27.65625 L 16.453125 -15.40625 Z M 26.296875 -15.40625 "/></g></g></g><g fill="#0071bc" fill-opacity="0.4"><g transform="translate(308.115454, 264.960889)"><g><path d="M 3.828125 -38.265625 L 14.640625 -38.265625 L 14.640625 0 L 3.828125 0 Z M 3.828125 -38.265625 "/></g></g></g><g fill="#0071bc" fill-opacity="0.4"><g transform="translate(322.489364, 264.960889)"><g><path d="M 20.546875 -10.171875 L 14.640625 -10.171875 L 14.640625 0 L 3.828125 0 L 3.828125 -38.265625 L 21.3125 -38.265625 C 24.78125 -38.265625 27.785156 -37.6875 30.328125 -36.53125 C 32.878906 -35.382812 34.847656 -33.742188 36.234375 -31.609375 C 37.617188 -29.484375 38.3125 -26.984375 38.3125 -24.109375 C 38.3125 -21.335938 37.664062 -18.921875 36.375 -16.859375 C 35.082031 -14.796875 33.234375 -13.1875 30.828125 -12.03125 L 39.078125 0 L 27.484375 0 Z M 27.375 -24.109375 C 27.375 -25.890625 26.8125 -27.269531 25.6875 -28.25 C 24.5625 -29.238281 22.882812 -29.734375 20.65625 -29.734375 L 14.640625 -29.734375 L 14.640625 -18.53125 L 20.65625 -18.53125 C 22.882812 -18.53125 24.5625 -19.007812 25.6875 -19.96875 C 26.8125 -20.9375 27.375 -22.316406 27.375 -24.109375 Z M 27.375 -24.109375 "/></g></g></g><g fill="#29aae1" fill-opacity="1"><g transform="translate(12.048881, 264.960889)"><g><path d="M 22.90625 0.765625 C 18.894531 0.765625 15.296875 -0.078125 12.109375 -1.765625 C 8.921875 -3.460938 6.414062 -5.820312 4.59375 -8.84375 C 2.769531 -11.875 1.859375 -15.300781 1.859375 -19.125 C 1.859375 -22.957031 2.769531 -26.382812 4.59375 -29.40625 C 6.414062 -32.425781 8.921875 -34.785156 12.109375 -36.484375 C 15.296875 -38.179688 18.894531 -39.03125 22.90625 -39.03125 C 26.394531 -39.03125 29.539062 -38.410156 32.34375 -37.171875 C 35.15625 -35.929688 37.492188 -34.144531 39.359375 -31.8125 L 32.46875 -25.578125 C 29.988281 -28.566406 26.984375 -30.0625 23.453125 -30.0625 C 21.367188 -30.0625 19.515625 -29.601562 17.890625 -28.6875 C 16.273438 -27.78125 15.019531 -26.5 14.125 -24.84375 C 13.238281 -23.1875 12.796875 -21.28125 12.796875 -19.125 C 12.796875 -16.976562 13.238281 -15.078125 14.125 -13.421875 C 15.019531 -11.765625 16.273438 -10.476562 17.890625 -9.5625 C 19.515625 -8.65625 21.367188 -8.203125 23.453125 -8.203125 C 26.984375 -8.203125 29.988281 -9.695312 32.46875 -12.6875 L 39.359375 -6.453125 C 37.492188 -4.117188 35.15625 -2.332031 32.34375 -1.09375 C 29.539062 0.144531 26.394531 0.765625 22.90625 0.765625 Z M 22.90625 0.765625 "/></g></g></g><g fill="#29aae1" fill-opacity="1"><g transform="translate(48.230607, 264.960889)"><g><path d="M 3.828125 -38.265625 L 14.640625 -38.265625 L 14.640625 -8.578125 L 32.90625 -8.578125 L 32.90625 0 L 3.828125 0 Z M 3.828125 -38.265625 "/></g></g></g><g fill="#29aae1" fill-opacity="1"><g transform="translate(77.416345, 264.960889)"><g><path d="M 34.546875 -8.359375 L 34.546875 0 L 3.828125 0 L 3.828125 -38.265625 L 33.828125 -38.265625 L 33.828125 -29.890625 L 14.53125 -29.890625 L 14.53125 -23.453125 L 31.53125 -23.453125 L 31.53125 -15.359375 L 14.53125 -15.359375 L 14.53125 -8.359375 Z M 34.546875 -8.359375 "/></g></g></g><g fill="#29aae1" fill-opacity="1"><g transform="translate(109.990767, 264.960889)"><g><path d="M 29.453125 -7.4375 L 13.28125 -7.4375 L 10.28125 0 L -0.765625 0 L 16.125 -38.265625 L 26.78125 -38.265625 L 43.71875 0 L 32.46875 0 Z M 26.296875 -15.40625 L 21.375 -27.65625 L 16.453125 -15.40625 Z M 26.296875 -15.40625 "/></g></g></g><g fill="#29aae1" fill-opacity="1"><g transform="translate(148.795987, 264.960889)"><g><path d="M 40.234375 -38.265625 L 40.234375 0 L 31.3125 0 L 14.421875 -20.390625 L 14.421875 0 L 3.828125 0 L 3.828125 -38.265625 L 12.734375 -38.265625 L 29.625 -17.875 L 29.625 -38.265625 Z M 40.234375 -38.265625 "/></g></g></g><g fill="#29aae1" fill-opacity="1"><g transform="translate(188.694327, 264.960889)"><g><path d="M 34.546875 -8.359375 L 34.546875 0 L 3.828125 0 L 3.828125 -38.265625 L 33.828125 -38.265625 L 33.828125 -29.890625 L 14.53125 -29.890625 L 14.53125 -23.453125 L 31.53125 -23.453125 L 31.53125 -15.359375 L 14.53125 -15.359375 L 14.53125 -8.359375 Z M 34.546875 -8.359375 "/></g></g></g><g fill="#29aae1" fill-opacity="1"><g transform="translate(221.268757, 264.960889)"><g><path d="M 20.546875 -10.171875 L 14.640625 -10.171875 L 14.640625 0 L 3.828125 0 L 3.828125 -38.265625 L 21.3125 -38.265625 C 24.78125 -38.265625 27.785156 -37.6875 30.328125 -36.53125 C 32.878906 -35.382812 34.847656 -33.742188 36.234375 -31.609375 C 37.617188 -29.484375 38.3125 -26.984375 38.3125 -24.109375 C 38.3125 -21.335938 37.664062 -18.921875 36.375 -16.859375 C 35.082031 -14.796875 33.234375 -13.1875 30.828125 -12.03125 L 39.078125 0 L 27.484375 0 Z M 27.375 -24.109375 C 27.375 -25.890625 26.8125 -27.269531 25.6875 -28.25 C 24.5625 -29.238281 22.882812 -29.734375 20.65625 -29.734375 L 14.640625 -29.734375 L 14.640625 -18.53125 L 20.65625 -18.53125 C 22.882812 -18.53125 24.5625 -19.007812 25.6875 -19.96875 C 26.8125 -20.9375 27.375 -22.316406 27.375 -24.109375 Z M 27.375 -24.109375 "/></g></g></g><g fill="#29aae1" fill-opacity="1"><g transform="translate(257.559793, 264.960889)"><g/></g></g><g fill="#29aae1" fill-opacity="1"><g transform="translate(269.310226, 264.960889)"><g><path d="M 29.453125 -7.4375 L 13.28125 -7.4375 L 10.28125 0 L -0.765625 0 L 16.125 -38.265625 L 26.78125 -38.265625 L 43.71875 0 L 32.46875 0 Z M 26.296875 -15.40625 L 21.375 -27.65625 L 16.453125 -15.40625 Z M 26.296875 -15.40625 "/></g></g></g><g fill="#29aae1" fill-opacity="1"><g transform="translate(308.115454, 264.960889)"><g><path d="M 3.828125 -38.265625 L 14.640625 -38.265625 L 14.640625 0 L 3.828125 0 Z M 3.828125 -38.265625 "/></g></g></g><g fill="#29aae1" fill-opacity="1"><g transform="translate(322.489364, 264.960889)"><g><path d="M 20.546875 -10.171875 L 14.640625 -10.171875 L 14.640625 0 L 3.828125 0 L 3.828125 -38.265625 L 21.3125 -38.265625 C 24.78125 -38.265625 27.785156 -37.6875 30.328125 -36.53125 C 32.878906 -35.382812 34.847656 -33.742188 36.234375 -31.609375 C 37.617188 -29.484375 38.3125 -26.984375 38.3125 -24.109375 C 38.3125 -21.335938 37.664062 -18.921875 36.375 -16.859375 C 35.082031 -14.796875 33.234375 -13.1875 30.828125 -12.03125 L 39.078125 0 L 27.484375 0 Z M 27.375 -24.109375 C 27.375 -25.890625 26.8125 -27.269531 25.6875 -28.25 C 24.5625 -29.238281 22.882812 -29.734375 20.65625 -29.734375 L 14.640625 -29.734375 L 14.640625 -18.53125 L 20.65625 -18.53125 C 22.882812 -18.53125 24.5625 -19.007812 25.6875 -19.96875 C 26.8125 -20.9375 27.375 -22.316406 27.375 -24.109375 Z M 27.375 -24.109375 "/></g></g></g><g fill="#ffffff" fill-opacity="1"><g transform="translate(15.065655, 277.267189)"><g><path d="M 3.34375 0.125 C 2.789062 0.125 2.304688 0.03125 1.890625 -0.15625 C 1.484375 -0.34375 1.164062 -0.609375 0.9375 -0.953125 C 0.71875 -1.296875 0.601562 -1.695312 0.59375 -2.15625 L 1.484375 -2.15625 C 1.492188 -1.707031 1.671875 -1.351562 2.015625 -1.09375 C 2.359375 -0.832031 2.800781 -0.703125 3.34375 -0.703125 C 3.84375 -0.703125 4.234375 -0.800781 4.515625 -1 C 4.804688 -1.195312 4.953125 -1.46875 4.953125 -1.8125 C 4.953125 -2.132812 4.8125 -2.394531 4.53125 -2.59375 C 4.257812 -2.789062 3.804688 -2.960938 3.171875 -3.109375 C 2.304688 -3.316406 1.675781 -3.582031 1.28125 -3.90625 C 0.882812 -4.226562 0.6875 -4.660156 0.6875 -5.203125 C 0.6875 -5.796875 0.910156 -6.265625 1.359375 -6.609375 C 1.804688 -6.953125 2.414062 -7.125 3.1875 -7.125 C 3.96875 -7.125 4.585938 -6.925781 5.046875 -6.53125 C 5.503906 -6.144531 5.734375 -5.613281 5.734375 -4.9375 L 4.875 -4.9375 C 4.863281 -5.351562 4.707031 -5.679688 4.40625 -5.921875 C 4.101562 -6.171875 3.695312 -6.296875 3.1875 -6.296875 C 2.6875 -6.296875 2.289062 -6.195312 2 -6 C 1.71875 -5.800781 1.578125 -5.535156 1.578125 -5.203125 C 1.578125 -4.910156 1.707031 -4.664062 1.96875 -4.46875 C 2.238281 -4.28125 2.710938 -4.101562 3.390625 -3.9375 C 4.285156 -3.707031 4.921875 -3.425781 5.296875 -3.09375 C 5.679688 -2.769531 5.875 -2.351562 5.875 -1.84375 C 5.875 -1.238281 5.644531 -0.757812 5.1875 -0.40625 C 4.726562 -0.0507812 4.113281 0.125 3.34375 0.125 Z M 3.34375 0.125 "/></g></g></g><g fill="#ffffff" fill-opacity="1"><g transform="translate(28.203083, 277.267189)"><g><path d="M 1.015625 0 L 1.015625 -7 L 5.265625 -7 L 5.265625 -6.1875 L 1.90625 -6.1875 L 1.90625 -3.96875 L 5.015625 -3.96875 L 5.015625 -3.15625 L 1.90625 -3.15625 L 1.90625 -0.8125 L 5.375 -0.8125 L 5.375 0 Z M 1.015625 0 "/></g></g></g><g fill="#ffffff" fill-opacity="1"><g transform="translate(40.90069, 277.267189)"><g><path d="M 1.015625 0 L 1.015625 -7 L 3.6875 -7 C 4.175781 -7 4.597656 -6.90625 4.953125 -6.71875 C 5.316406 -6.539062 5.597656 -6.285156 5.796875 -5.953125 C 5.992188 -5.617188 6.09375 -5.21875 6.09375 -4.75 C 6.09375 -4.1875 5.945312 -3.71875 5.65625 -3.34375 C 5.363281 -2.976562 4.960938 -2.726562 4.453125 -2.59375 L 6.203125 0 L 5.15625 0 L 3.4375 -2.515625 L 1.90625 -2.515625 L 1.90625 0 Z M 1.90625 -3.34375 L 3.59375 -3.34375 C 4.101562 -3.34375 4.5 -3.460938 4.78125 -3.703125 C 5.0625 -3.953125 5.203125 -4.300781 5.203125 -4.75 C 5.203125 -5.195312 5.0625 -5.539062 4.78125 -5.78125 C 4.5 -6.03125 4.101562 -6.15625 3.59375 -6.15625 L 1.90625 -6.15625 Z M 1.90625 -3.34375 "/></g></g></g><g fill="#ffffff" fill-opacity="1"><g transform="translate(54.377985, 277.267189)"><g><path d="M 2.953125 0 L 0.171875 -7 L 1.109375 -7 L 2.265625 -4.046875 L 3.375 -1.265625 L 4.453125 -4.046875 L 5.625 -7 L 6.5625 -7 L 3.78125 0 Z M 2.953125 0 "/></g></g></g><g fill="#ffffff" fill-opacity="1"><g transform="translate(67.775307, 277.267189)"><g><path d="M 1.015625 0 L 1.015625 -7 L 1.90625 -7 L 1.90625 0 Z M 1.015625 0 "/></g></g></g><g fill="#ffffff" fill-opacity="1"><g transform="translate(77.36414, 277.267189)"><g><path d="M 3.34375 2.625 L 3.34375 1.953125 L 3.90625 1.953125 C 4.25 1.953125 4.421875 1.816406 4.421875 1.546875 C 4.421875 1.265625 4.25 1.125 3.90625 1.125 L 3.5625 1.125 L 3.453125 0.984375 L 3.765625 0.109375 C 3.140625 0.0546875 2.585938 -0.128906 2.109375 -0.453125 C 1.628906 -0.773438 1.253906 -1.195312 0.984375 -1.71875 C 0.710938 -2.25 0.578125 -2.84375 0.578125 -3.5 C 0.578125 -4.03125 0.660156 -4.515625 0.828125 -4.953125 C 1.003906 -5.398438 1.25 -5.785156 1.5625 -6.109375 C 1.882812 -6.429688 2.257812 -6.679688 2.6875 -6.859375 C 3.125 -7.035156 3.601562 -7.125 4.125 -7.125 C 4.675781 -7.125 5.179688 -7.019531 5.640625 -6.8125 C 6.109375 -6.613281 6.503906 -6.328125 6.828125 -5.953125 C 7.160156 -5.578125 7.40625 -5.132812 7.5625 -4.625 L 6.625 -4.625 C 6.4375 -5.125 6.117188 -5.519531 5.671875 -5.8125 C 5.234375 -6.101562 4.726562 -6.25 4.15625 -6.25 C 3.632812 -6.25 3.171875 -6.128906 2.765625 -5.890625 C 2.367188 -5.660156 2.054688 -5.335938 1.828125 -4.921875 C 1.597656 -4.515625 1.484375 -4.039062 1.484375 -3.5 C 1.484375 -2.957031 1.597656 -2.476562 1.828125 -2.0625 C 2.054688 -1.65625 2.367188 -1.332031 2.765625 -1.09375 C 3.171875 -0.863281 3.632812 -0.75 4.15625 -0.75 C 4.75 -0.75 5.273438 -0.898438 5.734375 -1.203125 C 6.191406 -1.515625 6.507812 -1.929688 6.6875 -2.453125 L 7.625 -2.453125 C 7.488281 -1.960938 7.265625 -1.53125 6.953125 -1.15625 C 6.640625 -0.78125 6.265625 -0.484375 5.828125 -0.265625 C 5.398438 -0.046875 4.921875 0.0820312 4.390625 0.125 L 4.21875 0.578125 C 4.507812 0.617188 4.738281 0.726562 4.90625 0.90625 C 5.070312 1.082031 5.15625 1.3125 5.15625 1.59375 C 5.15625 1.914062 5.046875 2.164062 4.828125 2.34375 C 4.617188 2.53125 4.332031 2.625 3.96875 2.625 Z M 3.34375 2.625 "/></g></g></g><g fill="#ffffff" fill-opacity="1"><g transform="translate(92.19091, 277.267189)"><g><path d="M 4.203125 0.125 C 3.492188 0.125 2.863281 -0.0234375 2.3125 -0.328125 C 1.769531 -0.640625 1.34375 -1.066406 1.03125 -1.609375 C 0.726562 -2.160156 0.578125 -2.789062 0.578125 -3.5 C 0.578125 -4.207031 0.726562 -4.832031 1.03125 -5.375 C 1.34375 -5.925781 1.769531 -6.351562 2.3125 -6.65625 C 2.863281 -6.96875 3.492188 -7.125 4.203125 -7.125 C 4.910156 -7.125 5.535156 -6.96875 6.078125 -6.65625 C 6.628906 -6.351562 7.054688 -5.925781 7.359375 -5.375 C 7.671875 -4.832031 7.828125 -4.207031 7.828125 -3.5 C 7.828125 -2.789062 7.671875 -2.160156 7.359375 -1.609375 C 7.054688 -1.066406 6.628906 -0.640625 6.078125 -0.328125 C 5.535156 -0.0234375 4.910156 0.125 4.203125 0.125 Z M 1.484375 -3.5 C 1.484375 -2.957031 1.597656 -2.476562 1.828125 -2.0625 C 2.054688 -1.65625 2.375 -1.332031 2.78125 -1.09375 C 3.195312 -0.863281 3.671875 -0.75 4.203125 -0.75 C 4.742188 -0.75 5.21875 -0.863281 5.625 -1.09375 C 6.03125 -1.332031 6.347656 -1.65625 6.578125 -2.0625 C 6.804688 -2.476562 6.921875 -2.957031 6.921875 -3.5 C 6.921875 -4.039062 6.804688 -4.515625 6.578125 -4.921875 C 6.347656 -5.335938 6.03125 -5.660156 5.625 -5.890625 C 5.21875 -6.128906 4.742188 -6.25 4.203125 -6.25 C 3.671875 -6.25 3.195312 -6.128906 2.78125 -5.890625 C 2.375 -5.660156 2.054688 -5.335938 1.828125 -4.921875 C 1.597656 -4.515625 1.484375 -4.039062 1.484375 -3.5 Z M 1.484375 -3.5 "/></g></g></g><g fill="#ffffff" fill-opacity="1"><g transform="translate(107.257582, 277.267189)"><g><path d="M 3.34375 0.125 C 2.789062 0.125 2.304688 0.03125 1.890625 -0.15625 C 1.484375 -0.34375 1.164062 -0.609375 0.9375 -0.953125 C 0.71875 -1.296875 0.601562 -1.695312 0.59375 -2.15625 L 1.484375 -2.15625 C 1.492188 -1.707031 1.671875 -1.351562 2.015625 -1.09375 C 2.359375 -0.832031 2.800781 -0.703125 3.34375 -0.703125 C 3.84375 -0.703125 4.234375 -0.800781 4.515625 -1 C 4.804688 -1.195312 4.953125 -1.46875 4.953125 -1.8125 C 4.953125 -2.132812 4.8125 -2.394531 4.53125 -2.59375 C 4.257812 -2.789062 3.804688 -2.960938 3.171875 -3.109375 C 2.304688 -3.316406 1.675781 -3.582031 1.28125 -3.90625 C 0.882812 -4.226562 0.6875 -4.660156 0.6875 -5.203125 C 0.6875 -5.796875 0.910156 -6.265625 1.359375 -6.609375 C 1.804688 -6.953125 2.414062 -7.125 3.1875 -7.125 C 3.96875 -7.125 4.585938 -6.925781 5.046875 -6.53125 C 5.503906 -6.144531 5.734375 -5.613281 5.734375 -4.9375 L 4.875 -4.9375 C 4.863281 -5.351562 4.707031 -5.679688 4.40625 -5.921875 C 4.101562 -6.171875 3.695312 -6.296875 3.1875 -6.296875 C 2.6875 -6.296875 2.289062 -6.195312 2 -6 C 1.71875 -5.800781 1.578125 -5.535156 1.578125 -5.203125 C 1.578125 -4.910156 1.707031 -4.664062 1.96875 -4.46875 C 2.238281 -4.28125 2.710938 -4.101562 3.390625 -3.9375 C 4.285156 -3.707031 4.921875 -3.425781 5.296875 -3.09375 C 5.679688 -2.769531 5.875 -2.351562 5.875 -1.84375 C 5.875 -1.238281 5.644531 -0.757812 5.1875 -0.40625 C 4.726562 -0.0507812 4.113281 0.125 3.34375 0.125 Z M 3.34375 0.125 "/></g></g></g><g fill="#ffffff" fill-opacity="1"><g transform="translate(120.39501, 277.267189)"><g/></g></g><g fill="#ffffff" fill-opacity="1"><g transform="translate(129.544011, 277.267189)"><g><path d="M 1.015625 0 L 1.015625 -7 L 3.4375 -7 C 4.15625 -7 4.78125 -6.847656 5.3125 -6.546875 C 5.851562 -6.253906 6.273438 -5.847656 6.578125 -5.328125 C 6.878906 -4.804688 7.03125 -4.195312 7.03125 -3.5 C 7.03125 -2.8125 6.878906 -2.203125 6.578125 -1.671875 C 6.273438 -1.148438 5.851562 -0.738281 5.3125 -0.4375 C 4.78125 -0.144531 4.15625 0 3.4375 0 Z M 1.90625 -0.84375 L 3.4375 -0.84375 C 3.96875 -0.84375 4.4375 -0.953125 4.84375 -1.171875 C 5.25 -1.398438 5.5625 -1.710938 5.78125 -2.109375 C 6.007812 -2.503906 6.125 -2.96875 6.125 -3.5 C 6.125 -4.03125 6.007812 -4.492188 5.78125 -4.890625 C 5.550781 -5.285156 5.234375 -5.59375 4.828125 -5.8125 C 4.421875 -6.039062 3.945312 -6.15625 3.40625 -6.15625 L 1.90625 -6.15625 Z M 1.90625 -0.84375 "/></g></g></g><g fill="#ffffff" fill-opacity="1"><g transform="translate(143.820995, 277.267189)"><g><path d="M 1.015625 0 L 1.015625 -7 L 5.265625 -7 L 5.265625 -6.1875 L 1.90625 -6.1875 L 1.90625 -3.96875 L 5.015625 -3.96875 L 5.015625 -3.15625 L 1.90625 -3.15625 L 1.90625 -0.8125 L 5.375 -0.8125 L 5.375 0 Z M 1.015625 0 "/></g></g></g><g fill="#ffffff" fill-opacity="1"><g transform="translate(156.518603, 277.267189)"><g/></g></g><g fill="#ffffff" fill-opacity="1"><g transform="translate(165.667605, 277.267189)"><g><path d="M 0.171875 0 L 3.046875 -7 L 3.875 -7 L 6.75 0 L 5.8125 0 L 5.15625 -1.59375 L 1.75 -1.59375 L 1.109375 0 Z M 2.09375 -2.40625 L 4.828125 -2.40625 L 3.453125 -5.765625 Z M 2.09375 -2.40625 "/></g></g></g><g fill="#ffffff" fill-opacity="1"><g transform="translate(179.254853, 277.267189)"><g><path d="M 1.015625 0 L 1.015625 -7 L 3.6875 -7 C 4.175781 -7 4.597656 -6.90625 4.953125 -6.71875 C 5.316406 -6.539062 5.597656 -6.285156 5.796875 -5.953125 C 5.992188 -5.617188 6.09375 -5.21875 6.09375 -4.75 C 6.09375 -4.1875 5.945312 -3.71875 5.65625 -3.34375 C 5.363281 -2.976562 4.960938 -2.726562 4.453125 -2.59375 L 6.203125 0 L 5.15625 0 L 3.4375 -2.515625 L 1.90625 -2.515625 L 1.90625 0 Z M 1.90625 -3.34375 L 3.59375 -3.34375 C 4.101562 -3.34375 4.5 -3.460938 4.78125 -3.703125 C 5.0625 -3.953125 5.203125 -4.300781 5.203125 -4.75 C 5.203125 -5.195312 5.0625 -5.539062 4.78125 -5.78125 C 4.5 -6.03125 4.101562 -6.15625 3.59375 -6.15625 L 1.90625 -6.15625 Z M 1.90625 -3.34375 "/></g></g></g><g fill="#ffffff" fill-opacity="1"><g transform="translate(192.732148, 277.267189)"><g/></g></g><g fill="#ffffff" fill-opacity="1"><g transform="translate(201.881149, 277.267189)"><g><path d="M 4.125 0.125 C 3.601562 0.125 3.125 0.0351562 2.6875 -0.140625 C 2.257812 -0.316406 1.882812 -0.566406 1.5625 -0.890625 C 1.25 -1.210938 1.003906 -1.59375 0.828125 -2.03125 C 0.660156 -2.476562 0.578125 -2.96875 0.578125 -3.5 C 0.578125 -4.03125 0.660156 -4.515625 0.828125 -4.953125 C 1.003906 -5.398438 1.25 -5.785156 1.5625 -6.109375 C 1.882812 -6.429688 2.257812 -6.679688 2.6875 -6.859375 C 3.125 -7.035156 3.601562 -7.125 4.125 -7.125 C 4.675781 -7.125 5.179688 -7.019531 5.640625 -6.8125 C 6.109375 -6.613281 6.503906 -6.328125 6.828125 -5.953125 C 7.160156 -5.578125 7.40625 -5.132812 7.5625 -4.625 L 6.625 -4.625 C 6.4375 -5.125 6.117188 -5.519531 5.671875 -5.8125 C 5.234375 -6.101562 4.726562 -6.25 4.15625 -6.25 C 3.632812 -6.25 3.171875 -6.128906 2.765625 -5.890625 C 2.367188 -5.660156 2.054688 -5.335938 1.828125 -4.921875 C 1.597656 -4.515625 1.484375 -4.039062 1.484375 -3.5 C 1.484375 -2.957031 1.597656 -2.476562 1.828125 -2.0625 C 2.054688 -1.65625 2.367188 -1.332031 2.765625 -1.09375 C 3.171875 -0.863281 3.632812 -0.75 4.15625 -0.75 C 4.75 -0.75 5.273438 -0.898438 5.734375 -1.203125 C 6.191406 -1.515625 6.507812 -1.929688 6.6875 -2.453125 L 7.625 -2.453125 C 7.476562 -1.941406 7.238281 -1.488281 6.90625 -1.09375 C 6.570312 -0.707031 6.164062 -0.40625 5.6875 -0.1875 C 5.207031 0.0195312 4.6875 0.125 4.125 0.125 Z M 4.125 0.125 "/></g></g></g><g fill="#ffffff" fill-opacity="1"><g transform="translate(216.70793, 277.267189)"><g><path d="M 4.203125 0.125 C 3.492188 0.125 2.863281 -0.0234375 2.3125 -0.328125 C 1.769531 -0.640625 1.34375 -1.066406 1.03125 -1.609375 C 0.726562 -2.160156 0.578125 -2.789062 0.578125 -3.5 C 0.578125 -4.207031 0.726562 -4.832031 1.03125 -5.375 C 1.34375 -5.925781 1.769531 -6.351562 2.3125 -6.65625 C 2.863281 -6.96875 3.492188 -7.125 4.203125 -7.125 C 4.910156 -7.125 5.535156 -6.96875 6.078125 -6.65625 C 6.628906 -6.351562 7.054688 -5.925781 7.359375 -5.375 C 7.671875 -4.832031 7.828125 -4.207031 7.828125 -3.5 C 7.828125 -2.789062 7.671875 -2.160156 7.359375 -1.609375 C 7.054688 -1.066406 6.628906 -0.640625 6.078125 -0.328125 C 5.535156 -0.0234375 4.910156 0.125 4.203125 0.125 Z M 1.484375 -3.5 C 1.484375 -2.957031 1.597656 -2.476562 1.828125 -2.0625 C 2.054688 -1.65625 2.375 -1.332031 2.78125 -1.09375 C 3.195312 -0.863281 3.671875 -0.75 4.203125 -0.75 C 4.742188 -0.75 5.21875 -0.863281 5.625 -1.09375 C 6.03125 -1.332031 6.347656 -1.65625 6.578125 -2.0625 C 6.804688 -2.476562 6.921875 -2.957031 6.921875 -3.5 C 6.921875 -4.039062 6.804688 -4.515625 6.578125 -4.921875 C 6.347656 -5.335938 6.03125 -5.660156 5.625 -5.890625 C 5.21875 -6.128906 4.742188 -6.25 4.203125 -6.25 C 3.671875 -6.25 3.195312 -6.128906 2.78125 -5.890625 C 2.375 -5.660156 2.054688 -5.335938 1.828125 -4.921875 C 1.597656 -4.515625 1.484375 -4.039062 1.484375 -3.5 Z M 1.484375 -3.5 "/></g></g></g><g fill="#ffffff" fill-opacity="1"><g transform="translate(231.774603, 277.267189)"><g><path d="M 1.015625 0 L 1.015625 -7 L 1.84375 -7 L 5.71875 -1.515625 L 5.71875 -7 L 6.578125 -7 L 6.578125 0 L 5.765625 0 L 1.890625 -5.484375 L 1.890625 0 Z M 1.015625 0 "/></g></g></g><g fill="#ffffff" fill-opacity="1"><g transform="translate(246.041585, 277.267189)"><g><path d="M 1.015625 0 L 1.015625 -7 L 3.4375 -7 C 4.15625 -7 4.78125 -6.847656 5.3125 -6.546875 C 5.851562 -6.253906 6.273438 -5.847656 6.578125 -5.328125 C 6.878906 -4.804688 7.03125 -4.195312 7.03125 -3.5 C 7.03125 -2.8125 6.878906 -2.203125 6.578125 -1.671875 C 6.273438 -1.148438 5.851562 -0.738281 5.3125 -0.4375 C 4.78125 -0.144531 4.15625 0 3.4375 0 Z M 1.90625 -0.84375 L 3.4375 -0.84375 C 3.96875 -0.84375 4.4375 -0.953125 4.84375 -1.171875 C 5.25 -1.398438 5.5625 -1.710938 5.78125 -2.109375 C 6.007812 -2.503906 6.125 -2.96875 6.125 -3.5 C 6.125 -4.03125 6.007812 -4.492188 5.78125 -4.890625 C 5.550781 -5.285156 5.234375 -5.59375 4.828125 -5.8125 C 4.421875 -6.039062 3.945312 -6.15625 3.40625 -6.15625 L 1.90625 -6.15625 Z M 1.90625 -0.84375 "/></g></g></g><g fill="#ffffff" fill-opacity="1"><g transform="translate(260.318569, 277.267189)"><g><path d="M 1.015625 0 L 1.015625 -7 L 1.90625 -7 L 1.90625 0 Z M 1.015625 0 "/></g></g></g><g fill="#ffffff" fill-opacity="1"><g transform="translate(269.90739, 277.267189)"><g><path d="M 4.125 0.125 C 3.601562 0.125 3.125 0.0351562 2.6875 -0.140625 C 2.257812 -0.316406 1.882812 -0.566406 1.5625 -0.890625 C 1.25 -1.210938 1.003906 -1.59375 0.828125 -2.03125 C 0.660156 -2.476562 0.578125 -2.96875 0.578125 -3.5 C 0.578125 -4.03125 0.660156 -4.515625 0.828125 -4.953125 C 1.003906 -5.398438 1.25 -5.785156 1.5625 -6.109375 C 1.882812 -6.429688 2.257812 -6.679688 2.6875 -6.859375 C 3.125 -7.035156 3.601562 -7.125 4.125 -7.125 C 4.675781 -7.125 5.179688 -7.019531 5.640625 -6.8125 C 6.109375 -6.613281 6.503906 -6.328125 6.828125 -5.953125 C 7.160156 -5.578125 7.40625 -5.132812 7.5625 -4.625 L 6.625 -4.625 C 6.4375 -5.125 6.117188 -5.519531 5.671875 -5.8125 C 5.234375 -6.101562 4.726562 -6.25 4.15625 -6.25 C 3.632812 -6.25 3.171875 -6.128906 2.765625 -5.890625 C 2.367188 -5.660156 2.054688 -5.335938 1.828125 -4.921875 C 1.597656 -4.515625 1.484375 -4.039062 1.484375 -3.5 C 1.484375 -2.957031 1.597656 -2.476562 1.828125 -2.0625 C 2.054688 -1.65625 2.367188 -1.332031 2.765625 -1.09375 C 3.171875 -0.863281 3.632812 -0.75 4.15625 -0.75 C 4.75 -0.75 5.273438 -0.898438 5.734375 -1.203125 C 6.191406 -1.515625 6.507812 -1.929688 6.6875 -2.453125 L 7.625 -2.453125 C 7.476562 -1.941406 7.238281 -1.488281 6.90625 -1.09375 C 6.570312 -0.707031 6.164062 -0.40625 5.6875 -0.1875 C 5.207031 0.0195312 4.6875 0.125 4.125 0.125 Z M 4.125 0.125 "/></g></g></g><g fill="#ffffff" fill-opacity="1"><g transform="translate(284.734171, 277.267189)"><g><path d="M 1.015625 0 L 1.015625 -7 L 1.90625 -7 L 1.90625 0 Z M 1.015625 0 "/></g></g></g><g fill="#ffffff" fill-opacity="1"><g transform="translate(294.322992, 277.267189)"><g><path d="M 4.203125 0.125 C 3.492188 0.125 2.863281 -0.0234375 2.3125 -0.328125 C 1.769531 -0.640625 1.34375 -1.066406 1.03125 -1.609375 C 0.726562 -2.160156 0.578125 -2.789062 0.578125 -3.5 C 0.578125 -4.207031 0.726562 -4.832031 1.03125 -5.375 C 1.34375 -5.925781 1.769531 -6.351562 2.3125 -6.65625 C 2.863281 -6.96875 3.492188 -7.125 4.203125 -7.125 C 4.910156 -7.125 5.535156 -6.96875 6.078125 -6.65625 C 6.628906 -6.351562 7.054688 -5.925781 7.359375 -5.375 C 7.671875 -4.832031 7.828125 -4.207031 7.828125 -3.5 C 7.828125 -2.789062 7.671875 -2.160156 7.359375 -1.609375 C 7.054688 -1.066406 6.628906 -0.640625 6.078125 -0.328125 C 5.535156 -0.0234375 4.910156 0.125 4.203125 0.125 Z M 1.484375 -3.5 C 1.484375 -2.957031 1.597656 -2.476562 1.828125 -2.0625 C 2.054688 -1.65625 2.375 -1.332031 2.78125 -1.09375 C 3.195312 -0.863281 3.671875 -0.75 4.203125 -0.75 C 4.742188 -0.75 5.21875 -0.863281 5.625 -1.09375 C 6.03125 -1.332031 6.347656 -1.65625 6.578125 -2.0625 C 6.804688 -2.476562 6.921875 -2.957031 6.921875 -3.5 C 6.921875 -4.039062 6.804688 -4.515625 6.578125 -4.921875 C 6.347656 -5.335938 6.03125 -5.660156 5.625 -5.890625 C 5.21875 -6.128906 4.742188 -6.25 4.203125 -6.25 C 3.671875 -6.25 3.195312 -6.128906 2.78125 -5.890625 C 2.375 -5.660156 2.054688 -5.335938 1.828125 -4.921875 C 1.597656 -4.515625 1.484375 -4.039062 1.484375 -3.5 Z M 1.484375 -3.5 "/></g></g></g><g fill="#ffffff" fill-opacity="1"><g transform="translate(309.389664, 277.267189)"><g><path d="M 1.015625 0 L 1.015625 -7 L 1.84375 -7 L 5.71875 -1.515625 L 5.71875 -7 L 6.578125 -7 L 6.578125 0 L 5.765625 0 L 1.890625 -5.484375 L 1.890625 0 Z M 1.015625 0 "/></g></g></g><g fill="#ffffff" fill-opacity="1"><g transform="translate(323.656646, 277.267189)"><g><path d="M 0.171875 0 L 3.046875 -7 L 3.875 -7 L 6.75 0 L 5.8125 0 L 5.15625 -1.59375 L 1.75 -1.59375 L 1.109375 0 Z M 2.09375 -2.40625 L 4.828125 -2.40625 L 3.453125 -5.765625 Z M 2.09375 -2.40625 "/></g></g></g><g fill="#ffffff" fill-opacity="1"><g transform="translate(337.243895, 277.267189)"><g><path d="M 1.015625 0 L 1.015625 -7 L 3.4375 -7 C 4.15625 -7 4.78125 -6.847656 5.3125 -6.546875 C 5.851562 -6.253906 6.273438 -5.847656 6.578125 -5.328125 C 6.878906 -4.804688 7.03125 -4.195312 7.03125 -3.5 C 7.03125 -2.8125 6.878906 -2.203125 6.578125 -1.671875 C 6.273438 -1.148438 5.851562 -0.738281 5.3125 -0.4375 C 4.78125 -0.144531 4.15625 0 3.4375 0 Z M 1.90625 -0.84375 L 3.4375 -0.84375 C 3.96875 -0.84375 4.4375 -0.953125 4.84375 -1.171875 C 5.25 -1.398438 5.5625 -1.710938 5.78125 -2.109375 C 6.007812 -2.503906 6.125 -2.96875 6.125 -3.5 C 6.125 -4.03125 6.007812 -4.492188 5.78125 -4.890625 C 5.550781 -5.285156 5.234375 -5.59375 4.828125 -5.8125 C 4.421875 -6.039062 3.945312 -6.15625 3.40625 -6.15625 L 1.90625 -6.15625 Z M 1.90625 -0.84375 "/></g></g></g><g fill="#ffffff" fill-opacity="1"><g transform="translate(351.520879, 277.267189)"><g><path d="M 4.203125 0.125 C 3.492188 0.125 2.863281 -0.0234375 2.3125 -0.328125 C 1.769531 -0.640625 1.34375 -1.066406 1.03125 -1.609375 C 0.726562 -2.160156 0.578125 -2.789062 0.578125 -3.5 C 0.578125 -4.207031 0.726562 -4.832031 1.03125 -5.375 C 1.34375 -5.925781 1.769531 -6.351562 2.3125 -6.65625 C 2.863281 -6.96875 3.492188 -7.125 4.203125 -7.125 C 4.910156 -7.125 5.535156 -6.96875 6.078125 -6.65625 C 6.628906 -6.351562 7.054688 -5.925781 7.359375 -5.375 C 7.671875 -4.832031 7.828125 -4.207031 7.828125 -3.5 C 7.828125 -2.789062 7.671875 -2.160156 7.359375 -1.609375 C 7.054688 -1.066406 6.628906 -0.640625 6.078125 -0.328125 C 5.535156 -0.0234375 4.910156 0.125 4.203125 0.125 Z M 1.484375 -3.5 C 1.484375 -2.957031 1.597656 -2.476562 1.828125 -2.0625 C 2.054688 -1.65625 2.375 -1.332031 2.78125 -1.09375 C 3.195312 -0.863281 3.671875 -0.75 4.203125 -0.75 C 4.742188 -0.75 5.21875 -0.863281 5.625 -1.09375 C 6.03125 -1.332031 6.347656 -1.65625 6.578125 -2.0625 C 6.804688 -2.476562 6.921875 -2.957031 6.921875 -3.5 C 6.921875 -4.039062 6.804688 -4.515625 6.578125 -4.921875 C 6.347656 -5.335938 6.03125 -5.660156 5.625 -5.890625 C 5.21875 -6.128906 4.742188 -6.25 4.203125 -6.25 C 3.671875 -6.25 3.195312 -6.128906 2.78125 -5.890625 C 2.375 -5.660156 2.054688 -5.335938 1.828125 -4.921875 C 1.597656 -4.515625 1.484375 -4.039062 1.484375 -3.5 Z M 1.484375 -3.5 "/></g></g></g><g clip-path="url(#bca8c4db43)"><path fill="#26a9e0" d="M 233.4375 167.59375 C 233.421875 166.511719 233.339844 165.429688 233.175781 164.359375 C 232.996094 163.292969 232.78125 162.230469 232.472656 161.195312 C 232.335938 160.671875 232.148438 160.164062 231.988281 159.648438 C 231.800781 159.140625 231.625 158.628906 231.421875 158.128906 C 231.21875 157.628906 231.019531 157.128906 230.792969 156.636719 C 230.582031 156.140625 230.347656 155.652344 230.113281 155.167969 C 229.164062 153.226562 228.09375 151.347656 226.957031 149.515625 C 225.808594 147.6875 224.609375 145.890625 223.351562 144.136719 C 222.101562 142.378906 220.816406 140.644531 219.5 138.929688 C 218.195312 137.210938 216.859375 135.511719 215.523438 133.808594 L 211.507812 128.703125 C 210.167969 127 208.835938 125.285156 207.515625 123.554688 C 206.195312 121.824219 204.898438 120.074219 203.613281 118.304688 C 202.335938 116.53125 201.089844 114.726562 199.882812 112.886719 C 198.675781 111.046875 197.496094 109.183594 196.378906 107.265625 C 195.253906 105.355469 194.199219 103.390625 193.203125 101.386719 C 191.214844 97.375 189.511719 93.160156 188.238281 88.753906 C 187.609375 86.550781 187.085938 84.300781 186.695312 82.015625 C 186.300781 79.730469 186.03125 77.410156 185.894531 75.074219 L 193.714844 78 L 192.664062 79.429688 L 191.597656 80.90625 C 190.886719 81.898438 190.1875 82.898438 189.492188 83.90625 C 188.796875 84.910156 188.113281 85.929688 187.433594 86.945312 C 186.746094 87.957031 186.070312 88.980469 185.402344 90.003906 C 182.71875 94.097656 180.132812 98.25 177.636719 102.4375 C 176.398438 104.539062 175.164062 106.636719 173.980469 108.761719 C 172.777344 110.871094 171.625 113.007812 170.484375 115.144531 C 169.921875 116.214844 169.359375 117.289062 168.8125 118.367188 L 167.992188 119.980469 C 167.71875 120.515625 167.449219 121.058594 167.183594 121.597656 C 166.125 123.765625 165.082031 125.933594 164.101562 128.121094 C 163.117188 130.308594 162.164062 132.503906 161.28125 134.714844 C 160.378906 136.921875 159.546875 139.148438 158.757812 141.378906 C 157.972656 143.609375 157.265625 145.855469 156.609375 148.105469 L 156.367188 148.949219 L 156.140625 149.796875 C 155.988281 150.363281 155.835938 150.925781 155.699219 151.492188 C 155.40625 152.621094 155.148438 153.753906 154.902344 154.886719 C 154.417969 157.152344 154.011719 159.421875 153.734375 161.691406 C 153.589844 162.820312 153.460938 163.988281 153.382812 165.035156 L 153.347656 165.4375 C 153.335938 165.574219 153.324219 165.703125 153.316406 165.867188 L 153.273438 166.804688 L 153.25 167.273438 L 153.234375 167.503906 L 153.230469 167.621094 L 153.226562 167.679688 C 153.226562 167.511719 153.226562 167.664062 153.226562 167.640625 L 153.214844 168.449219 C 153.207031 168.988281 153.179688 169.53125 153.210938 170.070312 L 153.238281 170.878906 C 153.25 171.148438 153.25 171.421875 153.277344 171.691406 L 153.402344 173.308594 L 153.609375 174.925781 C 153.933594 177.070312 154.425781 179.199219 155.097656 181.285156 C 155.421875 182.335938 155.820312 183.359375 156.234375 184.378906 C 156.460938 184.878906 156.671875 185.390625 156.898438 185.894531 L 157.632812 187.382812 C 158.65625 189.347656 159.863281 191.230469 161.21875 193.015625 C 162.570312 194.804688 164.082031 196.488281 165.734375 198.039062 C 166.15625 198.414062 166.574219 198.800781 167 199.175781 L 168.316406 200.261719 L 169.6875 201.289062 C 169.914062 201.464844 170.15625 201.617188 170.390625 201.777344 L 171.101562 202.257812 C 173.019531 203.511719 175.058594 204.605469 177.1875 205.519531 C 179.316406 206.429688 181.53125 207.183594 183.820312 207.691406 C 184.101562 207.769531 184.390625 207.824219 184.679688 207.878906 L 185.542969 208.046875 C 186.128906 208.171875 186.6875 208.242188 187.253906 208.324219 L 188.105469 208.449219 C 188.402344 208.484375 188.722656 208.507812 189.03125 208.535156 L 189.964844 208.617188 L 190.195312 208.636719 L 190.3125 208.644531 L 190.371094 208.652344 C 190.4375 208.652344 190.34375 208.652344 190.371094 208.65625 L 190.816406 208.671875 C 193.1875 208.808594 195.574219 208.695312 197.949219 208.394531 C 202.695312 207.800781 207.386719 206.332031 211.679688 204.027344 C 215.980469 201.734375 219.894531 198.644531 223.164062 194.9375 C 226.410156 191.214844 229.023438 186.902344 230.78125 182.242188 C 232.542969 177.582031 233.402344 172.585938 233.4375 167.59375 Z M 233.4375 167.59375 C 233.4375 170.089844 233.21875 172.585938 232.816406 175.050781 C 232.410156 177.515625 231.804688 179.949219 230.988281 182.316406 C 229.339844 187.042969 226.933594 191.519531 223.828125 195.492188 C 220.730469 199.472656 216.9375 202.925781 212.667969 205.714844 C 208.402344 208.515625 203.609375 210.550781 198.574219 211.785156 C 196.058594 212.402344 193.472656 212.804688 190.863281 212.964844 L 190.375 213.007812 L 189.851562 213.023438 L 188.917969 213.058594 C 188.601562 213.066406 188.300781 213.085938 187.976562 213.085938 L 186.96875 213.070312 C 186.292969 213.058594 185.609375 213.050781 184.964844 212.996094 L 183.976562 212.925781 C 183.644531 212.90625 183.316406 212.882812 182.988281 212.835938 C 177.726562 212.3125 172.507812 210.816406 167.648438 208.46875 C 162.773438 206.132812 158.308594 202.859375 154.472656 198.910156 C 150.648438 194.949219 147.460938 190.277344 145.230469 185.125 C 144.105469 182.550781 143.207031 179.867188 142.550781 177.117188 C 141.878906 174.371094 141.503906 171.546875 141.347656 168.714844 L 141.289062 167.65625 L 141.265625 166.617188 L 141.25 165.679688 C 141.246094 165.53125 141.25 165.351562 141.25 165.171875 L 141.261719 164.640625 C 141.273438 163.191406 141.335938 161.867188 141.421875 160.511719 C 141.617188 157.808594 141.925781 155.128906 142.386719 152.492188 C 142.613281 151.175781 142.859375 149.859375 143.140625 148.558594 C 143.269531 147.90625 143.429688 147.261719 143.578125 146.613281 L 143.808594 145.644531 L 144.054688 144.683594 C 144.707031 142.113281 145.46875 139.585938 146.296875 137.089844 C 147.128906 134.597656 148.050781 132.148438 149.019531 129.726562 C 150.003906 127.308594 151.039062 124.921875 152.140625 122.574219 C 153.25 120.230469 154.394531 117.910156 155.613281 115.636719 C 155.910156 115.0625 156.214844 114.496094 156.523438 113.929688 C 156.832031 113.367188 157.136719 112.796875 157.457031 112.238281 C 158.085938 111.113281 158.726562 110 159.375 108.890625 C 160.667969 106.667969 162.03125 104.492188 163.40625 102.335938 C 164.804688 100.1875 166.21875 98.054688 167.6875 95.964844 C 170.605469 91.769531 173.6875 87.703125 176.882812 83.738281 C 177.6875 82.75 178.496094 81.765625 179.3125 80.789062 C 180.132812 79.8125 180.960938 78.84375 181.796875 77.882812 C 182.632812 76.921875 183.480469 75.964844 184.332031 75.015625 L 185.628906 73.59375 L 186.289062 72.882812 L 186.980469 72.152344 L 195.570312 63.09375 L 194.800781 75.074219 C 194.542969 79.0625 194.742188 83.113281 195.351562 87.15625 C 195.976562 91.195312 197.023438 95.222656 198.386719 99.1875 C 199.070312 101.167969 199.839844 103.128906 200.679688 105.074219 C 201.519531 107.015625 202.410156 108.949219 203.375 110.847656 C 204.335938 112.753906 205.351562 114.636719 206.402344 116.507812 C 207.449219 118.378906 208.558594 120.222656 209.679688 122.058594 C 210.8125 123.890625 211.96875 125.710938 213.148438 127.523438 C 214.328125 129.328125 215.515625 131.136719 216.726562 132.929688 L 220.34375 138.328125 C 221.539062 140.132812 222.738281 141.9375 223.902344 143.765625 C 225.058594 145.597656 226.207031 147.4375 227.273438 149.324219 C 228.34375 151.207031 229.375 153.117188 230.261719 155.097656 C 231.152344 157.066406 231.960938 159.089844 232.511719 161.183594 C 232.8125 162.226562 233.023438 163.289062 233.195312 164.359375 C 233.355469 165.429688 233.425781 166.511719 233.4375 167.59375 " fill-opacity="1" fill-rule="nonzero"/></g></svg>