<svg xmlns="http://www.w3.org/2000/svg" xmlns:xlink="http://www.w3.org/1999/xlink" width="160" zoomAndPan="magnify" viewBox="0 0 120 63.749997" height="85" preserveAspectRatio="xMidYMid meet" version="1.0"><defs><g/><clipPath id="a3a38c592c"><path d="M 29 37 L 88 37 L 88 40.632812 L 29 40.632812 Z M 29 37 " clip-rule="nonzero"/></clipPath><clipPath id="718839b25e"><path d="M 26.511719 19 L 90 19 L 90 37 L 26.511719 37 Z M 26.511719 19 " clip-rule="nonzero"/></clipPath><clipPath id="1f280be660"><path d="M 46.140625 1.34375 L 73.773438 1.34375 L 73.773438 46.167969 L 46.140625 46.167969 Z M 46.140625 1.34375 " clip-rule="nonzero"/></clipPath></defs><g clip-path="url(#a3a38c592c)"><path fill="#29aae1" d="M 29.796875 39.394531 C 30.292969 39.890625 30.949219 40.160156 31.648438 40.160156 L 84.867188 40.160156 C 86.289062 40.160156 87.449219 39.015625 87.480469 37.601562 L 29.035156 37.601562 C 29.050781 38.277344 29.320312 38.914062 29.796875 39.394531 Z M 29.796875 39.394531 " fill-opacity="1" fill-rule="nonzero"/></g><g clip-path="url(#718839b25e)"><path fill="#29aae1" d="M 89.433594 19.039062 L 27.078125 19.039062 C 26.765625 19.039062 26.511719 19.292969 26.511719 19.601562 L 26.511719 35.988281 C 26.511719 36.300781 26.765625 36.554688 27.078125 36.554688 L 89.433594 36.554688 C 89.746094 36.554688 90 36.300781 90 35.988281 L 90 19.601562 C 90 19.292969 89.746094 19.039062 89.433594 19.039062 Z M 87.128906 34.050781 L 29.382812 34.050781 C 29.097656 34.050781 28.859375 33.816406 28.859375 33.527344 C 28.859375 33.238281 29.097656 33.003906 29.382812 33.003906 L 87.128906 33.003906 C 87.417969 33.003906 87.65625 33.238281 87.65625 33.527344 C 87.65625 33.816406 87.417969 34.050781 87.128906 34.050781 Z M 87.128906 34.050781 " fill-opacity="1" fill-rule="nonzero"/></g><g fill="#0071bc" fill-opacity="0.4"><g transform="translate(10.035641, 61.061561)"><g><path d="M 6.515625 0.21875 C 5.378906 0.21875 4.351562 -0.0195312 3.4375 -0.5 C 2.53125 -0.988281 1.816406 -1.660156 1.296875 -2.515625 C 0.785156 -3.378906 0.53125 -4.359375 0.53125 -5.453125 C 0.53125 -6.535156 0.785156 -7.507812 1.296875 -8.375 C 1.816406 -9.238281 2.53125 -9.910156 3.4375 -10.390625 C 4.351562 -10.867188 5.378906 -11.109375 6.515625 -11.109375 C 7.515625 -11.109375 8.410156 -10.929688 9.203125 -10.578125 C 10.003906 -10.222656 10.671875 -9.71875 11.203125 -9.0625 L 9.25 -7.28125 C 8.539062 -8.132812 7.679688 -8.5625 6.671875 -8.5625 C 6.085938 -8.5625 5.5625 -8.429688 5.09375 -8.171875 C 4.632812 -7.910156 4.273438 -7.539062 4.015625 -7.0625 C 3.765625 -6.59375 3.640625 -6.054688 3.640625 -5.453125 C 3.640625 -4.835938 3.765625 -4.289062 4.015625 -3.8125 C 4.273438 -3.34375 4.632812 -2.976562 5.09375 -2.71875 C 5.5625 -2.457031 6.085938 -2.328125 6.671875 -2.328125 C 7.679688 -2.328125 8.539062 -2.753906 9.25 -3.609375 L 11.203125 -1.84375 C 10.671875 -1.175781 10.003906 -0.664062 9.203125 -0.3125 C 8.410156 0.0390625 7.515625 0.21875 6.515625 0.21875 Z M 6.515625 0.21875 "/></g></g></g><g fill="#0071bc" fill-opacity="0.4"><g transform="translate(20.339347, 61.061561)"><g><path d="M 1.09375 -10.890625 L 4.171875 -10.890625 L 4.171875 -2.4375 L 9.375 -2.4375 L 9.375 0 L 1.09375 0 Z M 1.09375 -10.890625 "/></g></g></g><g fill="#0071bc" fill-opacity="0.4"><g transform="translate(28.65076, 61.061561)"><g><path d="M 9.828125 -2.375 L 9.828125 0 L 1.09375 0 L 1.09375 -10.890625 L 9.640625 -10.890625 L 9.640625 -8.515625 L 4.140625 -8.515625 L 4.140625 -6.671875 L 8.984375 -6.671875 L 8.984375 -4.375 L 4.140625 -4.375 L 4.140625 -2.375 Z M 9.828125 -2.375 "/></g></g></g><g fill="#0071bc" fill-opacity="0.4"><g transform="translate(37.927191, 61.061561)"><g><path d="M 8.390625 -2.109375 L 3.78125 -2.109375 L 2.921875 0 L -0.21875 0 L 4.59375 -10.890625 L 7.625 -10.890625 L 12.453125 0 L 9.25 0 Z M 7.484375 -4.390625 L 6.078125 -7.875 L 4.6875 -4.390625 Z M 7.484375 -4.390625 "/></g></g></g><g fill="#0071bc" fill-opacity="0.4"><g transform="translate(48.978007, 61.061561)"><g><path d="M 11.453125 -10.890625 L 11.453125 0 L 8.921875 0 L 4.109375 -5.8125 L 4.109375 0 L 1.09375 0 L 1.09375 -10.890625 L 3.625 -10.890625 L 8.4375 -5.09375 L 8.4375 -10.890625 Z M 11.453125 -10.890625 "/></g></g></g><g fill="#0071bc" fill-opacity="0.4"><g transform="translate(60.340118, 61.061561)"><g><path d="M 9.828125 -2.375 L 9.828125 0 L 1.09375 0 L 1.09375 -10.890625 L 9.640625 -10.890625 L 9.640625 -8.515625 L 4.140625 -8.515625 L 4.140625 -6.671875 L 8.984375 -6.671875 L 8.984375 -4.375 L 4.140625 -4.375 L 4.140625 -2.375 Z M 9.828125 -2.375 "/></g></g></g><g fill="#0071bc" fill-opacity="0.4"><g transform="translate(69.616551, 61.061561)"><g><path d="M 5.84375 -2.890625 L 4.171875 -2.890625 L 4.171875 0 L 1.09375 0 L 1.09375 -10.890625 L 6.0625 -10.890625 C 7.050781 -10.890625 7.910156 -10.722656 8.640625 -10.390625 C 9.367188 -10.066406 9.925781 -9.601562 10.3125 -9 C 10.707031 -8.394531 10.90625 -7.679688 10.90625 -6.859375 C 10.90625 -6.078125 10.71875 -5.390625 10.34375 -4.796875 C 9.976562 -4.210938 9.457031 -3.753906 8.78125 -3.421875 L 11.125 0 L 7.828125 0 Z M 7.796875 -6.859375 C 7.796875 -7.367188 7.632812 -7.765625 7.3125 -8.046875 C 6.988281 -8.328125 6.507812 -8.46875 5.875 -8.46875 L 4.171875 -8.46875 L 4.171875 -5.28125 L 5.875 -5.28125 C 6.507812 -5.28125 6.988281 -5.414062 7.3125 -5.6875 C 7.632812 -5.957031 7.796875 -6.347656 7.796875 -6.859375 Z M 7.796875 -6.859375 "/></g></g></g><g fill="#0071bc" fill-opacity="0.4"><g transform="translate(79.951387, 61.061561)"><g/></g></g><g fill="#0071bc" fill-opacity="0.4"><g transform="translate(83.297634, 61.061561)"><g><path d="M 8.390625 -2.109375 L 3.78125 -2.109375 L 2.921875 0 L -0.21875 0 L 4.59375 -10.890625 L 7.625 -10.890625 L 12.453125 0 L 9.25 0 Z M 7.484375 -4.390625 L 6.078125 -7.875 L 4.6875 -4.390625 Z M 7.484375 -4.390625 "/></g></g></g><g fill="#0071bc" fill-opacity="0.4"><g transform="translate(94.348452, 61.061561)"><g><path d="M 1.09375 -10.890625 L 4.171875 -10.890625 L 4.171875 0 L 1.09375 0 Z M 1.09375 -10.890625 "/></g></g></g><g fill="#0071bc" fill-opacity="0.4"><g transform="translate(98.441805, 61.061561)"><g><path d="M 5.84375 -2.890625 L 4.171875 -2.890625 L 4.171875 0 L 1.09375 0 L 1.09375 -10.890625 L 6.0625 -10.890625 C 7.050781 -10.890625 7.910156 -10.722656 8.640625 -10.390625 C 9.367188 -10.066406 9.925781 -9.601562 10.3125 -9 C 10.707031 -8.394531 10.90625 -7.679688 10.90625 -6.859375 C 10.90625 -6.078125 10.71875 -5.390625 10.34375 -4.796875 C 9.976562 -4.210938 9.457031 -3.753906 8.78125 -3.421875 L 11.125 0 L 7.828125 0 Z M 7.796875 -6.859375 C 7.796875 -7.367188 7.632812 -7.765625 7.3125 -8.046875 C 6.988281 -8.328125 6.507812 -8.46875 5.875 -8.46875 L 4.171875 -8.46875 L 4.171875 -5.28125 L 5.875 -5.28125 C 6.507812 -5.28125 6.988281 -5.414062 7.3125 -5.6875 C 7.632812 -5.957031 7.796875 -6.347656 7.796875 -6.859375 Z M 7.796875 -6.859375 "/></g></g></g><g fill="#29aae1" fill-opacity="1"><g transform="translate(10.035641, 61.061561)"><g><path d="M 6.515625 0.21875 C 5.378906 0.21875 4.351562 -0.0195312 3.4375 -0.5 C 2.53125 -0.988281 1.816406 -1.660156 1.296875 -2.515625 C 0.785156 -3.378906 0.53125 -4.359375 0.53125 -5.453125 C 0.53125 -6.535156 0.785156 -7.507812 1.296875 -8.375 C 1.816406 -9.238281 2.53125 -9.910156 3.4375 -10.390625 C 4.351562 -10.867188 5.378906 -11.109375 6.515625 -11.109375 C 7.515625 -11.109375 8.410156 -10.929688 9.203125 -10.578125 C 10.003906 -10.222656 10.671875 -9.71875 11.203125 -9.0625 L 9.25 -7.28125 C 8.539062 -8.132812 7.679688 -8.5625 6.671875 -8.5625 C 6.085938 -8.5625 5.5625 -8.429688 5.09375 -8.171875 C 4.632812 -7.910156 4.273438 -7.539062 4.015625 -7.0625 C 3.765625 -6.59375 3.640625 -6.054688 3.640625 -5.453125 C 3.640625 -4.835938 3.765625 -4.289062 4.015625 -3.8125 C 4.273438 -3.34375 4.632812 -2.976562 5.09375 -2.71875 C 5.5625 -2.457031 6.085938 -2.328125 6.671875 -2.328125 C 7.679688 -2.328125 8.539062 -2.753906 9.25 -3.609375 L 11.203125 -1.84375 C 10.671875 -1.175781 10.003906 -0.664062 9.203125 -0.3125 C 8.410156 0.0390625 7.515625 0.21875 6.515625 0.21875 Z M 6.515625 0.21875 "/></g></g></g><g fill="#29aae1" fill-opacity="1"><g transform="translate(20.339347, 61.061561)"><g><path d="M 1.09375 -10.890625 L 4.171875 -10.890625 L 4.171875 -2.4375 L 9.375 -2.4375 L 9.375 0 L 1.09375 0 Z M 1.09375 -10.890625 "/></g></g></g><g fill="#29aae1" fill-opacity="1"><g transform="translate(28.65076, 61.061561)"><g><path d="M 9.828125 -2.375 L 9.828125 0 L 1.09375 0 L 1.09375 -10.890625 L 9.640625 -10.890625 L 9.640625 -8.515625 L 4.140625 -8.515625 L 4.140625 -6.671875 L 8.984375 -6.671875 L 8.984375 -4.375 L 4.140625 -4.375 L 4.140625 -2.375 Z M 9.828125 -2.375 "/></g></g></g><g fill="#29aae1" fill-opacity="1"><g transform="translate(37.927191, 61.061561)"><g><path d="M 8.390625 -2.109375 L 3.78125 -2.109375 L 2.921875 0 L -0.21875 0 L 4.59375 -10.890625 L 7.625 -10.890625 L 12.453125 0 L 9.25 0 Z M 7.484375 -4.390625 L 6.078125 -7.875 L 4.6875 -4.390625 Z M 7.484375 -4.390625 "/></g></g></g><g fill="#29aae1" fill-opacity="1"><g transform="translate(48.978007, 61.061561)"><g><path d="M 11.453125 -10.890625 L 11.453125 0 L 8.921875 0 L 4.109375 -5.8125 L 4.109375 0 L 1.09375 0 L 1.09375 -10.890625 L 3.625 -10.890625 L 8.4375 -5.09375 L 8.4375 -10.890625 Z M 11.453125 -10.890625 "/></g></g></g><g fill="#29aae1" fill-opacity="1"><g transform="translate(60.340118, 61.061561)"><g><path d="M 9.828125 -2.375 L 9.828125 0 L 1.09375 0 L 1.09375 -10.890625 L 9.640625 -10.890625 L 9.640625 -8.515625 L 4.140625 -8.515625 L 4.140625 -6.671875 L 8.984375 -6.671875 L 8.984375 -4.375 L 4.140625 -4.375 L 4.140625 -2.375 Z M 9.828125 -2.375 "/></g></g></g><g fill="#29aae1" fill-opacity="1"><g transform="translate(69.616551, 61.061561)"><g><path d="M 5.84375 -2.890625 L 4.171875 -2.890625 L 4.171875 0 L 1.09375 0 L 1.09375 -10.890625 L 6.0625 -10.890625 C 7.050781 -10.890625 7.910156 -10.722656 8.640625 -10.390625 C 9.367188 -10.066406 9.925781 -9.601562 10.3125 -9 C 10.707031 -8.394531 10.90625 -7.679688 10.90625 -6.859375 C 10.90625 -6.078125 10.71875 -5.390625 10.34375 -4.796875 C 9.976562 -4.210938 9.457031 -3.753906 8.78125 -3.421875 L 11.125 0 L 7.828125 0 Z M 7.796875 -6.859375 C 7.796875 -7.367188 7.632812 -7.765625 7.3125 -8.046875 C 6.988281 -8.328125 6.507812 -8.46875 5.875 -8.46875 L 4.171875 -8.46875 L 4.171875 -5.28125 L 5.875 -5.28125 C 6.507812 -5.28125 6.988281 -5.414062 7.3125 -5.6875 C 7.632812 -5.957031 7.796875 -6.347656 7.796875 -6.859375 Z M 7.796875 -6.859375 "/></g></g></g><g fill="#29aae1" fill-opacity="1"><g transform="translate(79.951387, 61.061561)"><g/></g></g><g fill="#29aae1" fill-opacity="1"><g transform="translate(83.297634, 61.061561)"><g><path d="M 8.390625 -2.109375 L 3.78125 -2.109375 L 2.921875 0 L -0.21875 0 L 4.59375 -10.890625 L 7.625 -10.890625 L 12.453125 0 L 9.25 0 Z M 7.484375 -4.390625 L 6.078125 -7.875 L 4.6875 -4.390625 Z M 7.484375 -4.390625 "/></g></g></g><g fill="#29aae1" fill-opacity="1"><g transform="translate(94.348452, 61.061561)"><g><path d="M 1.09375 -10.890625 L 4.171875 -10.890625 L 4.171875 0 L 1.09375 0 Z M 1.09375 -10.890625 "/></g></g></g><g fill="#29aae1" fill-opacity="1"><g transform="translate(98.441805, 61.061561)"><g><path d="M 5.84375 -2.890625 L 4.171875 -2.890625 L 4.171875 0 L 1.09375 0 L 1.09375 -10.890625 L 6.0625 -10.890625 C 7.050781 -10.890625 7.910156 -10.722656 8.640625 -10.390625 C 9.367188 -10.066406 9.925781 -9.601562 10.3125 -9 C 10.707031 -8.394531 10.90625 -7.679688 10.90625 -6.859375 C 10.90625 -6.078125 10.71875 -5.390625 10.34375 -4.796875 C 9.976562 -4.210938 9.457031 -3.753906 8.78125 -3.421875 L 11.125 0 L 7.828125 0 Z M 7.796875 -6.859375 C 7.796875 -7.367188 7.632812 -7.765625 7.3125 -8.046875 C 6.988281 -8.328125 6.507812 -8.46875 5.875 -8.46875 L 4.171875 -8.46875 L 4.171875 -5.28125 L 5.875 -5.28125 C 6.507812 -5.28125 6.988281 -5.414062 7.3125 -5.6875 C 7.632812 -5.957031 7.796875 -6.347656 7.796875 -6.859375 Z M 7.796875 -6.859375 "/></g></g></g><g clip-path="url(#1f280be660)"><path fill="#004aad" d="M 73.859375 32.652344 C 73.851562 32.328125 73.828125 32.003906 73.777344 31.683594 C 73.722656 31.367188 73.660156 31.046875 73.566406 30.738281 C 73.527344 30.582031 73.46875 30.429688 73.421875 30.273438 C 73.363281 30.121094 73.3125 29.96875 73.25 29.820312 C 73.191406 29.667969 73.128906 29.519531 73.0625 29.371094 C 73 29.222656 72.929688 29.078125 72.859375 28.929688 C 72.574219 28.347656 72.25 27.785156 71.910156 27.238281 C 71.5625 26.691406 71.203125 26.152344 70.824219 25.625 C 70.449219 25.097656 70.0625 24.578125 69.667969 24.066406 C 69.273438 23.550781 68.875 23.042969 68.472656 22.53125 L 67.265625 21.003906 C 66.859375 20.492188 66.460938 19.976562 66.066406 19.460938 C 65.667969 18.941406 65.277344 18.417969 64.890625 17.886719 C 64.507812 17.355469 64.132812 16.816406 63.769531 16.265625 C 63.40625 15.710938 63.050781 15.152344 62.714844 14.578125 C 62.378906 14.007812 62.0625 13.417969 61.761719 12.816406 C 61.164062 11.617188 60.652344 10.355469 60.269531 9.03125 C 60.078125 8.371094 59.921875 7.699219 59.804688 7.015625 C 59.6875 6.328125 59.605469 5.636719 59.5625 4.933594 L 61.914062 5.8125 L 61.597656 6.238281 L 61.277344 6.683594 C 61.066406 6.980469 60.855469 7.277344 60.644531 7.582031 C 60.4375 7.882812 60.230469 8.1875 60.027344 8.492188 C 59.820312 8.792969 59.617188 9.101562 59.414062 9.40625 C 58.609375 10.632812 57.832031 11.878906 57.082031 13.132812 C 56.710938 13.761719 56.339844 14.390625 55.984375 15.027344 C 55.621094 15.660156 55.273438 16.300781 54.933594 16.941406 C 54.761719 17.261719 54.59375 17.582031 54.429688 17.90625 L 54.183594 18.390625 C 54.097656 18.550781 54.019531 18.710938 53.941406 18.875 C 53.621094 19.523438 53.308594 20.171875 53.011719 20.828125 C 52.714844 21.484375 52.429688 22.140625 52.164062 22.804688 C 51.894531 23.464844 51.644531 24.132812 51.40625 24.800781 C 51.167969 25.46875 50.957031 26.140625 50.761719 26.816406 L 50.6875 27.070312 L 50.617188 27.320312 C 50.574219 27.492188 50.527344 27.660156 50.488281 27.828125 C 50.398438 28.167969 50.320312 28.507812 50.246094 28.847656 C 50.101562 29.527344 49.980469 30.207031 49.894531 30.886719 C 49.851562 31.222656 49.8125 31.574219 49.789062 31.886719 L 49.78125 32.007812 C 49.777344 32.046875 49.773438 32.085938 49.769531 32.136719 L 49.757812 32.417969 L 49.746094 32.628906 L 49.746094 32.664062 L 49.742188 32.679688 C 49.742188 32.628906 49.742188 32.675781 49.742188 32.667969 L 49.738281 32.910156 C 49.738281 33.070312 49.730469 33.234375 49.738281 33.394531 L 49.746094 33.636719 C 49.75 33.71875 49.75 33.800781 49.757812 33.882812 L 49.796875 34.367188 L 49.859375 34.851562 C 49.957031 35.492188 50.101562 36.132812 50.304688 36.757812 C 50.402344 37.070312 50.523438 37.378906 50.648438 37.683594 C 50.714844 37.832031 50.777344 37.984375 50.847656 38.136719 L 51.066406 38.582031 C 51.375 39.171875 51.738281 39.734375 52.144531 40.269531 C 52.550781 40.808594 53.007812 41.3125 53.503906 41.777344 C 53.628906 41.886719 53.753906 42.003906 53.882812 42.117188 L 54.28125 42.441406 L 54.691406 42.75 C 54.757812 42.800781 54.832031 42.847656 54.902344 42.894531 L 55.117188 43.039062 C 55.695312 43.414062 56.304688 43.742188 56.945312 44.015625 C 57.585938 44.289062 58.253906 44.515625 58.941406 44.667969 C 59.027344 44.691406 59.113281 44.707031 59.199219 44.722656 L 59.457031 44.773438 C 59.632812 44.8125 59.800781 44.832031 59.972656 44.855469 L 60.230469 44.894531 C 60.316406 44.90625 60.414062 44.910156 60.507812 44.921875 L 60.789062 44.945312 L 60.859375 44.949219 L 60.890625 44.953125 L 60.910156 44.957031 C 60.929688 44.957031 60.902344 44.957031 60.910156 44.957031 L 61.042969 44.960938 C 61.757812 45.003906 62.472656 44.96875 63.1875 44.878906 C 64.613281 44.699219 66.023438 44.261719 67.316406 43.570312 C 68.609375 42.882812 69.785156 41.957031 70.769531 40.847656 C 71.746094 39.730469 72.53125 38.441406 73.058594 37.042969 C 73.589844 35.644531 73.847656 34.148438 73.859375 32.652344 Z M 73.859375 32.652344 C 73.855469 33.402344 73.792969 34.148438 73.671875 34.886719 C 73.550781 35.628906 73.367188 36.355469 73.121094 37.066406 C 72.625 38.480469 71.902344 39.820312 70.96875 41.011719 C 70.039062 42.207031 68.898438 43.238281 67.613281 44.074219 C 66.332031 44.914062 64.890625 45.523438 63.375 45.894531 C 62.621094 46.078125 61.84375 46.199219 61.058594 46.246094 L 60.910156 46.261719 L 60.753906 46.265625 L 60.472656 46.277344 C 60.378906 46.277344 60.289062 46.285156 60.191406 46.285156 L 59.886719 46.277344 C 59.683594 46.273438 59.480469 46.273438 59.285156 46.257812 L 58.988281 46.234375 C 58.886719 46.230469 58.789062 46.222656 58.691406 46.210938 C 57.109375 46.050781 55.539062 45.605469 54.078125 44.902344 C 52.613281 44.199219 51.269531 43.21875 50.117188 42.035156 C 48.96875 40.851562 48.011719 39.449219 47.339844 37.90625 C 47 37.136719 46.730469 36.332031 46.53125 35.507812 C 46.332031 34.683594 46.21875 33.839844 46.171875 32.992188 L 46.152344 32.671875 L 46.148438 32.359375 L 46.140625 32.082031 C 46.140625 32.035156 46.140625 31.980469 46.144531 31.929688 L 46.144531 31.769531 C 46.148438 31.335938 46.167969 30.9375 46.195312 30.53125 C 46.253906 29.722656 46.34375 28.917969 46.484375 28.128906 C 46.554688 27.734375 46.625 27.339844 46.710938 26.953125 C 46.75 26.753906 46.796875 26.5625 46.84375 26.367188 L 46.910156 26.078125 L 46.984375 25.789062 C 47.183594 25.019531 47.410156 24.261719 47.660156 23.515625 C 47.910156 22.769531 48.1875 22.035156 48.476562 21.308594 C 48.773438 20.585938 49.085938 19.871094 49.417969 19.167969 C 49.75 18.464844 50.09375 17.769531 50.460938 17.085938 C 50.550781 16.914062 50.640625 16.746094 50.734375 16.578125 C 50.828125 16.40625 50.917969 16.238281 51.015625 16.070312 C 51.203125 15.730469 51.398438 15.398438 51.59375 15.066406 C 51.980469 14.402344 52.390625 13.75 52.804688 13.101562 C 53.222656 12.457031 53.648438 11.820312 54.089844 11.191406 C 54.96875 9.9375 55.894531 8.71875 56.855469 7.53125 C 57.097656 7.234375 57.339844 6.9375 57.585938 6.648438 C 57.832031 6.355469 58.082031 6.0625 58.332031 5.777344 C 58.585938 5.488281 58.835938 5.203125 59.09375 4.917969 L 59.484375 4.492188 L 59.683594 4.277344 L 59.890625 4.058594 L 62.472656 1.34375 L 62.242188 4.933594 C 62.164062 6.128906 62.222656 7.34375 62.40625 8.554688 C 62.59375 9.765625 62.910156 10.972656 63.320312 12.160156 C 63.523438 12.753906 63.757812 13.339844 64.007812 13.921875 C 64.261719 14.503906 64.53125 15.082031 64.820312 15.652344 C 65.109375 16.222656 65.414062 16.789062 65.730469 17.347656 C 66.042969 17.910156 66.378906 18.460938 66.714844 19.011719 C 67.054688 19.5625 67.402344 20.105469 67.757812 20.648438 C 68.113281 21.191406 68.46875 21.730469 68.832031 22.269531 L 69.921875 23.886719 C 70.28125 24.425781 70.640625 24.96875 70.988281 25.515625 C 71.339844 26.0625 71.683594 26.617188 72.003906 27.179688 C 72.324219 27.746094 72.636719 28.316406 72.902344 28.910156 C 73.171875 29.5 73.414062 30.105469 73.578125 30.734375 C 73.667969 31.046875 73.730469 31.363281 73.785156 31.683594 C 73.832031 32.003906 73.855469 32.328125 73.859375 32.652344 " fill-opacity="1" fill-rule="nonzero"/></g></svg>