<svg xmlns="http://www.w3.org/2000/svg" xmlns:xlink="http://www.w3.org/1999/xlink" width="64" zoomAndPan="magnify" viewBox="0 0 48 48" height="64" preserveAspectRatio="xMidYMid meet" version="1.0"><defs><clipPath id="d2d7f7ad5e"><path d="M 0.488281 0.175781 L 47.507812 0.175781 L 47.507812 47.019531 L 0.488281 47.019531 Z M 0.488281 0.175781 " clip-rule="nonzero"/></clipPath></defs><g clip-path="url(#d2d7f7ad5e)"><path fill="#29aae1" d="M 46.894531 27.339844 C 46.378906 26.351562 45.507812 25.621094 44.4375 25.285156 C 43.371094 24.949219 42.238281 25.046875 41.25 25.5625 L 29.890625 31.484375 C 29.921875 31.308594 29.941406 31.132812 29.949219 30.953125 C 29.996094 29.839844 29.605469 28.773438 28.847656 27.949219 C 28.089844 27.121094 27.0625 26.640625 25.949219 26.59375 L 16.015625 26.164062 C 15.292969 26.132812 14.65625 26.273438 14.015625 26.609375 L 7.378906 30.066406 L 6.640625 28.648438 C 6.457031 28.296875 6.148438 28.035156 5.765625 27.914062 C 5.382812 27.796875 4.980469 27.832031 4.628906 28.015625 L 1.339844 29.726562 C 0.988281 29.910156 0.726562 30.222656 0.605469 30.605469 C 0.488281 30.984375 0.523438 31.390625 0.707031 31.742188 L 8.242188 46.203125 C 8.425781 46.558594 8.738281 46.816406 9.117188 46.9375 C 9.265625 46.984375 9.417969 47.007812 9.570312 47.007812 C 9.808594 47.007812 10.042969 46.953125 10.257812 46.839844 L 13.542969 45.125 C 13.894531 44.941406 14.15625 44.628906 14.277344 44.25 C 14.398438 43.867188 14.363281 43.464844 14.179688 43.109375 L 13.441406 41.695312 L 14.128906 41.335938 C 14.410156 41.1875 14.722656 41.214844 15.167969 41.308594 L 22.515625 42.886719 C 23.121094 43.015625 23.773438 43.136719 24.449219 43.136719 C 25.148438 43.136719 25.875 43.007812 26.59375 42.632812 L 45.117188 32.980469 C 46.101562 32.464844 46.832031 31.59375 47.167969 30.527344 C 47.507812 29.457031 47.40625 28.328125 46.894531 27.339844 Z M 13.164062 43.898438 C 13.140625 43.984375 13.082031 44.050781 13.003906 44.09375 L 9.71875 45.804688 C 9.640625 45.84375 9.554688 45.851562 9.46875 45.828125 C 9.386719 45.800781 9.316406 45.742188 9.277344 45.667969 L 1.742188 31.203125 C 1.660156 31.046875 1.722656 30.84375 1.878906 30.761719 L 5.167969 29.046875 C 5.214844 29.023438 5.265625 29.011719 5.316406 29.011719 C 5.351562 29.011719 5.382812 29.015625 5.417969 29.027344 C 5.5 29.054688 5.570312 29.109375 5.609375 29.1875 L 13.144531 43.648438 C 13.183594 43.726562 13.191406 43.816406 13.164062 43.898438 Z M 46.058594 30.175781 C 45.816406 30.949219 45.289062 31.578125 44.578125 31.949219 L 26.058594 41.597656 C 25.089844 42.105469 24.078125 42.03125 22.761719 41.75 L 15.410156 40.171875 C 14.835938 40.046875 14.214844 39.976562 13.589844 40.300781 L 12.902344 40.660156 L 7.917969 31.101562 L 14.554688 27.644531 C 15.011719 27.402344 15.449219 27.308594 15.964844 27.328125 L 25.898438 27.757812 C 26.699219 27.792969 27.441406 28.140625 27.988281 28.738281 C 28.535156 29.332031 28.816406 30.101562 28.78125 30.902344 C 28.746094 31.703125 28.398438 32.445312 27.804688 32.992188 C 27.207031 33.539062 26.4375 33.820312 25.636719 33.785156 L 18.953125 33.5 C 18.632812 33.484375 18.359375 33.734375 18.34375 34.054688 C 18.332031 34.378906 18.578125 34.648438 18.902344 34.664062 L 25.585938 34.953125 C 25.648438 34.953125 25.710938 34.957031 25.769531 34.957031 C 26.816406 34.957031 27.8125 34.566406 28.59375 33.851562 C 28.828125 33.636719 29.035156 33.394531 29.214844 33.140625 L 29.21875 33.148438 L 41.789062 26.597656 C 42.5 26.226562 43.316406 26.15625 44.085938 26.398438 C 44.859375 26.640625 45.488281 27.167969 45.859375 27.878906 C 46.230469 28.589844 46.300781 29.40625 46.058594 30.175781 Z M 27.871094 9.578125 C 30.464844 9.578125 32.570312 7.472656 32.570312 4.878906 C 32.570312 2.289062 30.464844 0.183594 27.871094 0.183594 C 25.28125 0.183594 23.175781 2.289062 23.175781 4.878906 C 23.175781 7.46875 25.28125 9.578125 27.871094 9.578125 Z M 27.871094 1.347656 C 29.820312 1.347656 31.40625 2.933594 31.40625 4.878906 C 31.40625 6.828125 29.820312 8.414062 27.871094 8.414062 C 25.925781 8.414062 24.339844 6.828125 24.339844 4.878906 C 24.339844 2.933594 25.925781 1.347656 27.871094 1.347656 Z M 18.863281 20.851562 C 18.863281 22.171875 19.9375 23.246094 21.257812 23.246094 L 34.484375 23.246094 C 35.808594 23.246094 36.882812 22.171875 36.882812 20.851562 L 36.882812 20.417969 C 36.882812 15.449219 32.839844 11.410156 27.875 11.410156 C 22.90625 11.410156 18.863281 15.449219 18.863281 20.417969 Z M 20.03125 20.417969 C 20.03125 16.09375 23.546875 12.574219 27.871094 12.574219 C 32.199219 12.574219 35.714844 16.09375 35.714844 20.417969 L 35.714844 20.851562 C 35.714844 21.527344 35.164062 22.082031 34.484375 22.082031 L 21.257812 22.082031 C 20.582031 22.082031 20.027344 21.527344 20.027344 20.851562 L 20.027344 20.417969 Z M 12.316406 14.519531 L 14.320312 15.390625 L 15.191406 17.394531 C 15.28125 17.605469 15.492188 17.742188 15.726562 17.742188 C 15.957031 17.742188 16.167969 17.605469 16.257812 17.394531 L 17.128906 15.390625 L 19.132812 14.519531 C 19.34375 14.425781 19.484375 14.21875 19.484375 13.984375 C 19.484375 13.753906 19.34375 13.542969 19.132812 13.453125 L 17.128906 12.582031 L 16.257812 10.578125 C 16.167969 10.367188 15.957031 10.226562 15.726562 10.226562 C 15.492188 10.226562 15.28125 10.367188 15.191406 10.578125 L 14.320312 12.582031 L 12.316406 13.453125 C 12.105469 13.542969 11.96875 13.753906 11.96875 13.984375 C 11.96875 14.21875 12.105469 14.425781 12.316406 14.519531 Z M 14.996094 13.558594 C 15.128906 13.496094 15.238281 13.390625 15.296875 13.253906 L 15.726562 12.273438 L 16.152344 13.253906 C 16.210938 13.390625 16.320312 13.496094 16.453125 13.558594 L 17.4375 13.984375 L 16.453125 14.414062 C 16.320312 14.472656 16.210938 14.578125 16.152344 14.714844 L 15.726562 15.699219 L 15.296875 14.714844 C 15.238281 14.578125 15.128906 14.472656 14.996094 14.414062 L 14.011719 13.984375 Z M 34.972656 6.796875 L 36.976562 7.667969 L 37.847656 9.671875 C 37.9375 9.882812 38.148438 10.019531 38.382812 10.019531 C 38.613281 10.019531 38.824219 9.882812 38.914062 9.671875 L 39.785156 7.667969 L 41.789062 6.796875 C 42 6.707031 42.140625 6.496094 42.140625 6.261719 C 42.140625 6.03125 42 5.820312 41.789062 5.730469 L 39.785156 4.859375 L 38.914062 2.855469 C 38.824219 2.644531 38.613281 2.503906 38.382812 2.503906 C 38.148438 2.503906 37.9375 2.644531 37.847656 2.855469 L 36.976562 4.859375 L 34.972656 5.730469 C 34.761719 5.820312 34.625 6.03125 34.625 6.261719 C 34.625 6.496094 34.761719 6.707031 34.972656 6.796875 Z M 37.652344 5.835938 C 37.785156 5.777344 37.894531 5.667969 37.953125 5.535156 L 38.382812 4.550781 L 38.808594 5.535156 C 38.867188 5.667969 38.976562 5.777344 39.109375 5.835938 L 40.09375 6.261719 L 39.109375 6.691406 C 38.976562 6.75 38.867188 6.859375 38.808594 6.992188 L 38.378906 7.976562 L 37.953125 6.992188 C 37.894531 6.859375 37.785156 6.75 37.652344 6.691406 L 36.667969 6.261719 Z M 37.652344 5.835938 " fill-opacity="1" fill-rule="nonzero"/></g></svg>