<svg xmlns="http://www.w3.org/2000/svg" xmlns:xlink="http://www.w3.org/1999/xlink" width="64" zoomAndPan="magnify" viewBox="0 0 48 48" height="64" preserveAspectRatio="xMidYMid meet" version="1.0"><defs><clipPath id="8e86473649"><path d="M 0.488281 4.347656 L 47.507812 4.347656 L 47.507812 42.554688 L 0.488281 42.554688 Z M 0.488281 4.347656 " clip-rule="nonzero"/></clipPath></defs><g clip-path="url(#8e86473649)"><path fill="#29aae1" d="M 47.5 14.457031 C 47.5 13.65625 47.183594 12.945312 46.585938 12.410156 L 39.4375 5.984375 C 38.550781 5.183594 37.429688 4.367188 35.851562 4.367188 C 34.273438 4.371094 33.152344 5.1875 32.265625 5.988281 L 25.121094 12.417969 C 24.523438 12.953125 24.210938 13.664062 24.210938 14.46875 L 24.210938 22.71875 L 19.46875 22.71875 C 20.328125 20.9375 20.925781 18.121094 20.253906 16.011719 C 19.78125 14.527344 18.742188 13.546875 17.246094 13.179688 C 17.054688 13.132812 16.851562 13.167969 16.683594 13.269531 C 16.515625 13.371094 16.398438 13.539062 16.355469 13.730469 C 16.273438 14.082031 16.195312 14.414062 16.125 14.726562 C 15.242188 18.613281 15.128906 19.113281 12.691406 20.707031 C 10.96875 21.832031 10.847656 21.976562 9.777344 23.539062 C 9.667969 23.699219 9.546875 23.875 9.414062 24.070312 C 8.980469 24.695312 8.425781 24.980469 7.617188 24.988281 L 7.554688 24.988281 L 7.554688 24.8125 C 7.554688 23.894531 6.8125 23.152344 5.894531 23.152344 L 2.148438 23.152344 C 1.234375 23.152344 0.488281 23.894531 0.488281 24.8125 L 0.488281 41 C 0.488281 41.914062 1.234375 42.65625 2.148438 42.65625 L 5.894531 42.65625 C 6.8125 42.65625 7.554688 41.914062 7.554688 41 L 7.554688 40.246094 C 7.886719 40.359375 8.21875 40.484375 8.558594 40.613281 C 10.226562 41.234375 12.121094 41.941406 14.929688 41.941406 L 24.679688 41.941406 C 25.097656 41.941406 25.492188 41.855469 25.851562 41.699219 C 26.203125 41.859375 26.585938 41.941406 26.976562 41.941406 C 26.976562 41.941406 26.976562 41.941406 26.980469 41.941406 L 44.753906 41.933594 C 46.273438 41.933594 47.511719 40.695312 47.511719 39.175781 Z M 6.085938 41 C 6.085938 41.101562 6 41.1875 5.894531 41.1875 L 2.148438 41.1875 C 2.046875 41.1875 1.960938 41.101562 1.960938 41 L 1.960938 24.8125 C 1.960938 24.707031 2.046875 24.621094 2.148438 24.621094 L 5.894531 24.621094 C 6 24.621094 6.085938 24.707031 6.085938 24.8125 Z M 14.929688 40.472656 C 12.386719 40.472656 10.703125 39.84375 9.074219 39.234375 C 8.582031 39.050781 8.078125 38.863281 7.554688 38.695312 L 7.554688 26.457031 L 7.625 26.457031 C 8.910156 26.445312 9.917969 25.921875 10.621094 24.90625 C 10.757812 24.707031 10.878906 24.53125 10.988281 24.371094 C 11.976562 22.929688 11.976562 22.929688 13.496094 21.9375 C 16.429688 20.015625 16.648438 19.0625 17.558594 15.050781 C 17.574219 14.992188 17.585938 14.933594 17.601562 14.871094 C 18.207031 15.191406 18.617188 15.714844 18.855469 16.457031 C 19.546875 18.632812 18.453125 21.984375 17.597656 22.972656 C 17.410156 23.191406 17.367188 23.496094 17.484375 23.757812 C 17.605469 24.019531 17.867188 24.1875 18.15625 24.1875 L 26.554688 24.1875 C 27.371094 24.1875 28.039062 24.855469 28.039062 25.671875 C 28.039062 26.492188 27.371094 27.15625 26.554688 27.15625 L 20.761719 27.15625 C 20.355469 27.15625 20.027344 27.484375 20.027344 27.890625 C 20.027344 28.296875 20.355469 28.625 20.761719 28.625 L 27.765625 28.625 C 28.585938 28.625 29.25 29.292969 29.25 30.109375 C 29.25 30.929688 28.585938 31.59375 27.765625 31.59375 L 20.761719 31.59375 C 20.355469 31.59375 20.027344 31.925781 20.027344 32.332031 C 20.027344 32.734375 20.355469 33.066406 20.761719 33.066406 L 27.003906 33.066406 C 27.824219 33.066406 28.488281 33.730469 28.488281 34.550781 C 28.488281 35.367188 27.824219 36.035156 27.003906 36.035156 L 20.761719 36.035156 C 20.355469 36.035156 20.027344 36.363281 20.027344 36.769531 C 20.027344 37.175781 20.355469 37.503906 20.761719 37.503906 L 24.679688 37.503906 C 25.5 37.503906 26.164062 38.167969 26.164062 38.988281 C 26.164062 39.804688 25.5 40.472656 24.679688 40.472656 Z M 44.753906 40.464844 L 27.234375 40.472656 C 27.488281 40.035156 27.636719 39.527344 27.636719 38.988281 C 27.636719 38.445312 27.488281 37.933594 27.230469 37.496094 C 28.753906 37.378906 29.957031 36.101562 29.957031 34.550781 C 29.957031 33.828125 29.699219 33.167969 29.269531 32.652344 C 30.136719 32.140625 30.722656 31.191406 30.722656 30.109375 C 30.722656 28.902344 29.988281 27.859375 28.945312 27.402344 C 29.300781 26.917969 29.507812 26.316406 29.507812 25.671875 C 29.507812 24.042969 28.183594 22.71875 26.554688 22.71875 L 25.683594 22.71875 L 25.679688 14.464844 C 25.679688 14.082031 25.820312 13.765625 26.105469 13.507812 L 33.25 7.078125 C 34.226562 6.199219 34.980469 5.839844 35.851562 5.839844 C 36.722656 5.839844 37.476562 6.195312 38.457031 7.078125 L 45.605469 13.5 C 45.890625 13.757812 46.03125 14.074219 46.03125 14.460938 L 46.039062 39.175781 C 46.042969 39.886719 45.464844 40.464844 44.753906 40.464844 Z M 40.265625 30.523438 C 40.375 31.410156 40.136719 32.21875 39.578125 32.863281 C 38.921875 33.621094 37.832031 34.128906 36.59375 34.273438 L 36.59375 35.207031 C 36.59375 35.613281 36.265625 35.941406 35.859375 35.941406 C 35.453125 35.941406 35.125 35.613281 35.125 35.207031 L 35.125 34.261719 C 33.289062 34.007812 31.863281 32.847656 31.449219 31.191406 C 31.351562 30.796875 31.589844 30.398438 31.984375 30.300781 C 32.378906 30.203125 32.777344 30.441406 32.875 30.835938 C 33.257812 32.363281 34.792969 32.871094 35.992188 32.84375 C 37.023438 32.816406 37.996094 32.449219 38.46875 31.902344 C 38.753906 31.570312 38.863281 31.179688 38.808594 30.699219 C 38.667969 29.570312 37.726562 28.921875 35.75 28.597656 C 32.605469 28.082031 31.875 26.488281 31.8125 25.238281 C 31.730469 23.511719 32.941406 22.0625 34.824219 21.636719 C 34.921875 21.613281 35.023438 21.59375 35.125 21.578125 L 35.125 20.621094 C 35.125 20.21875 35.453125 19.886719 35.859375 19.886719 C 36.265625 19.886719 36.59375 20.21875 36.59375 20.621094 L 36.59375 21.574219 C 37.941406 21.769531 39.265625 22.550781 39.929688 24.128906 C 40.085938 24.503906 39.910156 24.933594 39.535156 25.089844 C 39.164062 25.25 38.730469 25.074219 38.574219 24.699219 C 37.9375 23.179688 36.394531 22.785156 35.148438 23.070312 C 34.207031 23.28125 33.222656 23.945312 33.28125 25.167969 C 33.300781 25.550781 33.355469 26.714844 35.988281 27.148438 C 36.964844 27.308594 39.933594 27.796875 40.265625 30.523438 Z M 35.855469 14.21875 C 37.296875 14.21875 38.46875 13.046875 38.46875 11.605469 C 38.46875 10.160156 37.296875 8.988281 35.855469 8.988281 C 34.410156 8.988281 33.238281 10.160156 33.238281 11.605469 C 33.238281 13.046875 34.410156 14.21875 35.855469 14.21875 Z M 35.855469 10.457031 C 36.484375 10.457031 37 10.972656 37 11.605469 C 37 12.234375 36.484375 12.75 35.855469 12.75 C 35.222656 12.75 34.707031 12.234375 34.707031 11.605469 C 34.707031 10.972656 35.222656 10.457031 35.855469 10.457031 Z M 35.855469 10.457031 " fill-opacity="1" fill-rule="nonzero"/></g></svg>