<svg xmlns="http://www.w3.org/2000/svg" xmlns:xlink="http://www.w3.org/1999/xlink" width="64" zoomAndPan="magnify" viewBox="0 0 48 48" height="64" preserveAspectRatio="xMidYMid meet" version="1.0"><defs><clipPath id="b5c522cfb8"><path d="M 0.488281 0 L 47.507812 0 L 47.507812 47 L 0.488281 47 Z M 0.488281 0 " clip-rule="nonzero"/></clipPath></defs><g clip-path="url(#b5c522cfb8)"><path fill="#29aae1" d="M 46.875 30.734375 C 47.152344 30.304688 47.496094 29.777344 47.375 29.101562 C 47.304688 28.6875 47.078125 28.34375 46.882812 28.039062 C 46.757812 27.84375 46.613281 27.621094 46.585938 27.484375 C 46.5625 27.34375 46.621094 27.085938 46.675781 26.855469 C 46.773438 26.421875 46.886719 25.933594 46.707031 25.429688 C 46.519531 24.914062 46.089844 24.59375 45.746094 24.332031 C 45.566406 24.195312 45.363281 24.039062 45.296875 23.929688 C 45.230469 23.808594 45.195312 23.550781 45.167969 23.320312 C 45.113281 22.898438 45.046875 22.371094 44.703125 21.960938 C 44.351562 21.542969 43.84375 21.386719 43.433594 21.261719 C 43.214844 21.195312 42.964844 21.121094 42.863281 21.035156 C 42.761719 20.949219 42.644531 20.714844 42.539062 20.511719 C 42.34375 20.132812 42.101562 19.65625 41.632812 19.386719 C 41.167969 19.117188 40.636719 19.144531 40.210938 19.164062 C 39.980469 19.175781 39.71875 19.1875 39.59375 19.144531 C 39.535156 19.121094 39.460938 19.070312 39.382812 19.007812 C 39.273438 13.960938 37.25 9.234375 33.664062 5.664062 C 29.996094 2.011719 25.125 0 19.949219 0 C 9.226562 0 0.503906 8.722656 0.503906 19.441406 C 0.503906 30.164062 9.226562 38.886719 19.949219 38.886719 C 22.648438 38.886719 25.257812 38.339844 27.710938 37.273438 C 27.746094 37.289062 27.785156 37.304688 27.820312 37.320312 L 25.074219 43.21875 C 24.957031 43.472656 24.988281 43.773438 25.160156 43.996094 C 25.332031 44.222656 25.613281 44.332031 25.890625 44.28125 L 29.070312 43.726562 L 30.691406 46.519531 C 30.828125 46.75 31.078125 46.894531 31.347656 46.894531 C 31.359375 46.894531 31.371094 46.894531 31.382812 46.894531 C 31.664062 46.878906 31.914062 46.710938 32.03125 46.457031 L 34.730469 40.660156 C 34.921875 40.601562 35.105469 40.523438 35.277344 40.453125 C 35.488281 40.363281 35.734375 40.257812 35.867188 40.257812 C 35.996094 40.257812 36.230469 40.359375 36.4375 40.445312 C 36.785156 40.59375 37.207031 40.773438 37.671875 40.75 L 39.621094 45.28125 C 39.734375 45.542969 39.980469 45.714844 40.261719 45.738281 C 40.28125 45.738281 40.296875 45.738281 40.316406 45.738281 C 40.578125 45.738281 40.820312 45.605469 40.960938 45.382812 L 42.660156 42.640625 L 45.824219 43.285156 C 46.101562 43.34375 46.382812 43.242188 46.5625 43.023438 C 46.738281 42.804688 46.78125 42.503906 46.671875 42.246094 L 44.425781 37.039062 C 44.527344 36.96875 44.617188 36.882812 44.703125 36.785156 C 45.046875 36.371094 45.113281 35.84375 45.167969 35.417969 C 45.195312 35.191406 45.226562 34.929688 45.292969 34.816406 C 45.359375 34.699219 45.570312 34.542969 45.75 34.40625 C 46.09375 34.148438 46.519531 33.828125 46.703125 33.316406 C 46.890625 32.8125 46.769531 32.292969 46.675781 31.878906 C 46.625 31.652344 46.566406 31.398438 46.589844 31.261719 C 46.613281 31.136719 46.753906 30.921875 46.875 30.734375 Z M 2.019531 19.441406 C 2.019531 9.554688 10.0625 1.511719 19.949219 1.511719 C 29.332031 1.511719 37.085938 8.796875 37.820312 18.007812 C 37.3125 17.933594 36.859375 18.125 36.460938 18.292969 C 36.246094 18.382812 36.003906 18.484375 35.867188 18.484375 C 35.742188 18.484375 35.507812 18.386719 35.296875 18.300781 C 34.902344 18.132812 34.40625 17.921875 33.867188 18.019531 C 33.324219 18.113281 32.933594 18.476562 32.617188 18.773438 C 32.453125 18.925781 32.265625 19.101562 32.144531 19.144531 C 32.015625 19.1875 31.753906 19.175781 31.523438 19.164062 C 31.074219 19.140625 30.566406 19.117188 30.101562 19.386719 C 29.628906 19.65625 29.386719 20.132812 29.191406 20.515625 C 29.089844 20.71875 28.972656 20.949219 28.871094 21.035156 C 28.765625 21.121094 28.519531 21.199219 28.296875 21.265625 C 28.128906 21.316406 27.945312 21.375 27.765625 21.453125 C 26.5 20.140625 24.9375 19.179688 23.230469 18.636719 C 24.789062 17.582031 25.8125 15.796875 25.8125 13.777344 C 25.8125 10.542969 23.183594 7.914062 19.949219 7.914062 C 16.714844 7.914062 14.082031 10.542969 14.082031 13.777344 C 14.082031 15.796875 15.109375 17.582031 16.667969 18.636719 C 12.277344 20.03125 9.085938 24.144531 9.085938 28.992188 C 9.085938 29.410156 9.425781 29.75 9.84375 29.75 L 24.382812 29.75 C 24.472656 30.117188 24.671875 30.429688 24.855469 30.707031 C 24.980469 30.902344 25.125 31.121094 25.148438 31.261719 C 25.175781 31.402344 25.113281 31.660156 25.0625 31.886719 C 24.960938 32.320312 24.847656 32.8125 25.03125 33.316406 C 25.21875 33.832031 25.644531 34.152344 25.988281 34.414062 C 26.167969 34.550781 26.375 34.703125 26.441406 34.816406 C 26.507812 34.9375 26.539062 35.195312 26.570312 35.425781 C 26.59375 35.621094 26.621094 35.84375 26.679688 36.0625 C 24.542969 36.933594 22.285156 37.371094 19.949219 37.371094 C 10.0625 37.371094 2.019531 29.328125 2.019531 19.441406 Z M 25.058594 26.867188 C 25.113281 27.089844 25.171875 27.347656 25.144531 27.480469 C 25.125 27.609375 24.984375 27.824219 24.863281 28.011719 C 24.816406 28.085938 24.769531 28.160156 24.71875 28.234375 L 10.628906 28.234375 C 11.015625 23.433594 15.046875 19.644531 19.949219 19.644531 C 22.515625 19.644531 24.957031 20.695312 26.71875 22.546875 C 26.632812 22.816406 26.597656 23.085938 26.570312 23.328125 C 26.539062 23.554688 26.507812 23.816406 26.441406 23.929688 C 26.375 24.042969 26.167969 24.199219 25.984375 24.339844 C 25.644531 24.597656 25.21875 24.917969 25.03125 25.429688 C 24.847656 25.933594 24.964844 26.449219 25.058594 26.867188 Z M 19.949219 18.128906 C 17.546875 18.128906 15.59375 16.179688 15.59375 13.777344 C 15.59375 11.378906 17.546875 9.425781 19.949219 9.425781 C 22.347656 9.425781 24.300781 11.378906 24.300781 13.777344 C 24.300781 16.179688 22.347656 18.128906 19.949219 18.128906 Z M 31.273438 44.503906 L 30.113281 42.511719 C 29.957031 42.238281 29.640625 42.09375 29.328125 42.144531 L 27.058594 42.542969 L 29.128906 38.097656 C 29.152344 38.144531 29.175781 38.1875 29.199219 38.234375 C 29.390625 38.613281 29.636719 39.085938 30.101562 39.359375 C 30.570312 39.628906 31.101562 39.601562 31.527344 39.582031 C 31.757812 39.570312 32.019531 39.554688 32.144531 39.601562 C 32.265625 39.648438 32.457031 39.824219 32.625 39.980469 C 32.78125 40.128906 32.960938 40.292969 33.167969 40.433594 Z M 42.449219 41.050781 C 42.136719 40.988281 41.820312 41.125 41.65625 41.394531 L 40.4375 43.351562 L 39.023438 40.0625 C 39.054688 40.035156 39.089844 40.003906 39.121094 39.972656 C 39.285156 39.820312 39.472656 39.644531 39.589844 39.601562 C 39.71875 39.554688 39.980469 39.570312 40.214844 39.582031 C 40.664062 39.601562 41.171875 39.628906 41.636719 39.359375 C 42.105469 39.089844 42.347656 38.613281 42.542969 38.230469 C 42.648438 38.027344 42.765625 37.796875 42.867188 37.710938 C 42.902344 37.679688 42.960938 37.648438 43.03125 37.621094 L 44.707031 41.515625 Z M 45.886719 29.367188 C 45.902344 29.453125 45.710938 29.75 45.605469 29.910156 C 45.40625 30.21875 45.175781 30.570312 45.101562 31 C 45.023438 31.4375 45.117188 31.851562 45.203125 32.214844 C 45.246094 32.402344 45.316406 32.710938 45.285156 32.800781 C 45.25 32.886719 44.992188 33.082031 44.839844 33.199219 C 44.542969 33.421875 44.203125 33.679688 43.984375 34.058594 C 43.765625 34.441406 43.710938 34.859375 43.667969 35.230469 C 43.644531 35.421875 43.601562 35.742188 43.542969 35.8125 C 43.480469 35.882812 43.175781 35.976562 42.992188 36.035156 C 42.636719 36.144531 42.230469 36.269531 41.894531 36.554688 C 41.558594 36.835938 41.367188 37.210938 41.199219 37.542969 C 41.109375 37.714844 40.960938 38.003906 40.878906 38.050781 C 40.796875 38.09375 40.480469 38.078125 40.289062 38.070312 C 39.914062 38.050781 39.488281 38.03125 39.074219 38.179688 C 38.667969 38.328125 38.359375 38.613281 38.089844 38.867188 C 37.9375 39.007812 37.707031 39.21875 37.609375 39.238281 C 37.507812 39.253906 37.21875 39.132812 37.027344 39.054688 C 36.6875 38.910156 36.300781 38.746094 35.867188 38.746094 C 35.425781 38.746094 35.035156 38.910156 34.6875 39.058594 C 34.511719 39.132812 34.21875 39.253906 34.128906 39.242188 C 34.03125 39.222656 33.796875 39.003906 33.65625 38.871094 C 33.382812 38.617188 33.074219 38.332031 32.664062 38.183594 C 32.390625 38.082031 32.113281 38.058594 31.847656 38.058594 C 31.710938 38.058594 31.578125 38.0625 31.453125 38.070312 C 31.261719 38.078125 30.941406 38.09375 30.859375 38.046875 C 30.777344 38 30.632812 37.714844 30.542969 37.542969 C 30.375 37.210938 30.179688 36.835938 29.84375 36.550781 C 29.507812 36.269531 29.101562 36.144531 28.746094 36.035156 C 28.5625 35.980469 28.253906 35.886719 28.191406 35.8125 C 28.132812 35.742188 28.09375 35.425781 28.070312 35.238281 C 28.023438 34.863281 27.972656 34.445312 27.75 34.058594 C 27.53125 33.683594 27.195312 33.429688 26.902344 33.207031 C 26.746094 33.089844 26.488281 32.894531 26.453125 32.800781 C 26.425781 32.714844 26.496094 32.410156 26.535156 32.226562 C 26.621094 31.859375 26.71875 31.441406 26.640625 31 C 26.5625 30.558594 26.328125 30.199219 26.125 29.882812 C 26.011719 29.707031 25.871094 29.492188 25.851562 29.378906 C 25.835938 29.292969 26.027344 28.996094 26.132812 28.835938 C 26.332031 28.527344 26.558594 28.175781 26.636719 27.746094 C 26.714844 27.308594 26.617188 26.894531 26.535156 26.53125 C 26.492188 26.34375 26.421875 26.035156 26.453125 25.945312 C 26.484375 25.855469 26.742188 25.664062 26.898438 25.546875 C 27.195312 25.320312 27.53125 25.066406 27.75 24.6875 C 27.972656 24.304688 28.023438 23.886719 28.070312 23.515625 C 28.09375 23.324219 28.132812 23.003906 28.195312 22.933594 C 28.253906 22.863281 28.5625 22.765625 28.742188 22.710938 C 29.101562 22.601562 29.507812 22.476562 29.84375 22.191406 C 30.179688 21.910156 30.371094 21.535156 30.539062 21.203125 C 30.628906 21.03125 30.773438 20.742188 30.859375 20.695312 C 30.941406 20.648438 31.257812 20.667969 31.449219 20.675781 C 31.820312 20.695312 32.246094 20.714844 32.660156 20.566406 C 33.070312 20.417969 33.375 20.132812 33.648438 19.878906 C 33.796875 19.738281 34.027344 19.523438 34.128906 19.507812 C 34.230469 19.492188 34.519531 19.613281 34.710938 19.691406 C 35.050781 19.835938 35.433594 20 35.867188 20 C 35.867188 20 35.867188 20 35.871094 20 C 36.3125 20 36.703125 19.832031 37.046875 19.6875 C 37.222656 19.613281 37.515625 19.492188 37.609375 19.503906 C 37.703125 19.523438 37.941406 19.742188 38.082031 19.875 C 38.355469 20.128906 38.664062 20.414062 39.074219 20.5625 C 39.488281 20.714844 39.910156 20.695312 40.285156 20.675781 C 40.476562 20.667969 40.796875 20.652344 40.878906 20.695312 C 40.957031 20.746094 41.105469 21.03125 41.191406 21.203125 C 41.363281 21.535156 41.554688 21.910156 41.894531 22.195312 C 42.230469 22.476562 42.632812 22.601562 42.992188 22.710938 C 43.175781 22.765625 43.484375 22.859375 43.542969 22.933594 C 43.601562 23.003906 43.644531 23.320312 43.667969 23.507812 C 43.710938 23.878906 43.765625 24.300781 43.988281 24.6875 C 44.203125 25.0625 44.539062 25.316406 44.835938 25.539062 C 45 25.664062 45.25 25.851562 45.28125 25.945312 C 45.3125 26.03125 45.242188 26.335938 45.199219 26.519531 C 45.117188 26.886719 45.019531 27.304688 45.097656 27.746094 C 45.175781 28.1875 45.410156 28.546875 45.613281 28.863281 C 45.726562 29.035156 45.867188 29.253906 45.886719 29.367188 Z M 35.867188 21.273438 C 31.402344 21.273438 27.769531 24.90625 27.769531 29.371094 C 27.769531 33.839844 31.402344 37.472656 35.867188 37.472656 C 40.335938 37.472656 43.96875 33.839844 43.96875 29.371094 C 43.96875 24.90625 40.335938 21.273438 35.867188 21.273438 Z M 35.867188 35.960938 C 32.238281 35.960938 29.28125 33.003906 29.28125 29.371094 C 29.28125 25.742188 32.238281 22.785156 35.867188 22.785156 C 39.5 22.785156 42.453125 25.742188 42.453125 29.371094 C 42.453125 33.003906 39.5 35.960938 35.867188 35.960938 Z M 37.636719 26.835938 L 36.570312 24.222656 C 36.453125 23.9375 36.175781 23.75 35.867188 23.75 C 35.5625 23.75 35.285156 23.9375 35.167969 24.222656 L 34.101562 26.835938 L 31.285156 27.042969 C 30.976562 27.066406 30.714844 27.273438 30.621094 27.566406 C 30.523438 27.855469 30.617188 28.175781 30.851562 28.375 L 33.007812 30.199219 L 32.335938 32.941406 C 32.261719 33.242188 32.375 33.554688 32.625 33.734375 C 32.875 33.914062 33.207031 33.925781 33.46875 33.765625 L 35.867188 32.277344 L 38.269531 33.765625 C 38.390625 33.839844 38.53125 33.878906 38.667969 33.878906 C 38.824219 33.878906 38.980469 33.832031 39.113281 33.734375 C 39.359375 33.554688 39.476562 33.242188 39.402344 32.941406 L 38.730469 30.199219 L 40.886719 28.375 C 41.121094 28.175781 41.210938 27.855469 41.117188 27.566406 C 41.023438 27.273438 40.761719 27.066406 40.453125 27.042969 Z M 37.394531 29.347656 C 37.175781 29.53125 37.082031 29.824219 37.148438 30.105469 L 37.492188 31.503906 L 36.265625 30.746094 C 36.023438 30.59375 35.714844 30.59375 35.46875 30.746094 L 34.246094 31.503906 L 34.585938 30.105469 C 34.65625 29.828125 34.558594 29.53125 34.339844 29.347656 L 33.242188 28.417969 L 34.679688 28.308594 C 34.964844 28.289062 35.214844 28.105469 35.324219 27.839844 L 35.867188 26.507812 L 36.414062 27.839844 C 36.523438 28.105469 36.773438 28.289062 37.058594 28.308594 L 38.496094 28.417969 Z M 37.394531 29.347656 " fill-opacity="1" fill-rule="nonzero"/></g></svg>